<svg width="12" height="12" viewBox="0 0 12 12" fill="none" xmlns="http://www.w3.org/2000/svg">
<path d="M4.12461 11.3062V8.71875L2.19336 10.1437C2.73711 10.65 3.39336 11.0437 4.12461 11.3062Z" fill="#2A5F9E"/>
<path d="M7.875 11.3062C8.60625 11.0437 9.2625 10.65 9.80625 10.1437L7.875 8.69995V11.3062Z" fill="#2A5F9E"/>
<path d="M0.693359 7.875C0.749609 8.0625 0.824609 8.23125 0.918359 8.41875L1.64961 7.875H0.693359Z" fill="#2A5F9E"/>
<path d="M10.3496 7.875L11.0809 8.41875C11.1559 8.25 11.2309 8.0625 11.3059 7.875H10.3496Z" fill="#2A5F9E"/>
<path d="M4.40605 7.125H0.487305C0.543555 7.3875 0.618555 7.63125 0.693555 7.875H1.6498L0.918555 8.41875C1.06855 8.7375 1.2373 9.01875 1.44355 9.3L3.3748 7.875H4.1248V8.25L1.93105 9.8625L2.19355 10.125L4.1248 8.71875V11.3063C4.36855 11.4 4.6123 11.4563 4.8748 11.5125V7.125H4.40605Z" fill="white"/>
<path d="M11.5125 7.125H7.125V11.5125C7.3875 11.4563 7.63125 11.3813 7.875 11.3063V8.71875L9.80625 10.125C10.0688 9.88125 10.2938 9.61875 10.5188 9.3375L8.5125 7.875H9.7875L10.9313 8.71875C10.9875 8.625 11.0438 8.5125 11.0813 8.41875L10.35 7.875H11.3063C11.3813 7.63125 11.4563 7.3875 11.5125 7.125Z" fill="white"/>
<path d="M1.44336 9.30005C1.59336 9.5063 1.74336 9.6938 1.91211 9.8813L4.12461 8.2688V7.8938H3.37461L1.44336 9.30005Z" fill="#ED4C5C"/>
<path d="M8.53125 7.875L10.5375 9.3375C10.6125 9.24375 10.6687 9.15 10.7437 9.05625C10.7625 9.0375 10.7625 9.01875 10.7812 9.01875C10.8375 8.925 10.9125 8.8125 10.9688 8.71875L9.7875 7.875H8.53125Z" fill="#ED4C5C"/>
<path d="M7.875 0.693848V3.28135L9.80625 1.85635C9.2625 1.3501 8.60625 0.956348 7.875 0.693848Z" fill="#2A5F9E"/>
<path d="M4.12461 0.693848C3.39336 0.956348 2.73711 1.3501 2.19336 1.85635L4.12461 3.3001V0.693848Z" fill="#2A5F9E"/>
<path d="M11.3059 4.12505C11.2496 3.93755 11.1746 3.7688 11.0809 3.5813L10.3496 4.12505H11.3059Z" fill="#2A5F9E"/>
<path d="M1.64961 4.12505L0.918359 3.5813C0.843359 3.7688 0.768359 3.93755 0.693359 4.12505H1.64961Z" fill="#2A5F9E"/>
<path d="M7.59375 4.87505H11.4938C11.4375 4.61255 11.3625 4.3688 11.2875 4.12505H10.3312L11.0625 3.5813C10.9125 3.26255 10.7438 2.9813 10.5375 2.70005L8.625 4.12505H7.875V3.75005L10.0688 2.13755L9.80625 1.87505L7.875 3.2813V0.693799C7.63125 0.600049 7.3875 0.543799 7.125 0.487549V4.87505H7.59375Z" fill="white"/>
<path d="M0.487305 4.87505H4.8748V0.487549C4.6123 0.543799 4.36855 0.618799 4.1248 0.693799V3.2813L2.19355 1.87505C1.93105 2.1188 1.70605 2.3813 1.48105 2.66255L3.4873 4.12505H2.2123L1.06855 3.2813C1.0123 3.37505 0.956055 3.48755 0.918555 3.5813L1.6498 4.12505H0.693555C0.618555 4.3688 0.543555 4.61255 0.487305 4.87505Z" fill="white"/>
<path d="M10.5562 2.6999C10.4062 2.49365 10.2562 2.30615 10.0875 2.11865L7.875 3.73115V4.10615H8.625L10.5562 2.6999" fill="#ED4C5C"/>
<path d="M3.46855 4.1251L1.48105 2.6626C1.40605 2.75635 1.3498 2.8501 1.2748 2.94385C1.25605 2.9626 1.25605 2.98135 1.2373 2.98135C1.18105 3.0751 1.10605 3.1876 1.0498 3.28135L2.19355 4.1251H3.46855Z" fill="#ED4C5C"/>
<path d="M11.5125 4.875H7.125V0.4875C6.76875 0.4125 6.39375 0.375 6 0.375C5.60625 0.375 5.23125 0.4125 4.875 0.4875V4.875H0.4875C0.4125 5.23125 0.375 5.60625 0.375 6C0.375 6.39375 0.4125 6.76875 0.4875 7.125H4.875V11.5125C5.23125 11.5875 5.60625 11.625 6 11.625C6.39375 11.625 6.76875 11.5875 7.125 11.5125V7.125H11.5125C11.5875 6.76875 11.625 6.39375 11.625 6C11.625 5.60625 11.5875 5.23125 11.5125 4.875Z" fill="#ED4C5C"/>
</svg>
