<svg width="12" height="12" viewBox="0 0 12 12" fill="none" xmlns="http://www.w3.org/2000/svg">
<path d="M0.318359 6.0001C0.318359 8.45635 1.89336 10.5376 4.06836 11.3063V0.693848C1.89336 1.4626 0.318359 3.54385 0.318359 6.0001Z" fill="#75A843"/>
<path d="M11.5684 6.0001C11.5684 3.54385 9.99336 1.4626 7.81836 0.693848V11.3063C10.0121 10.5376 11.5684 8.45635 11.5684 6.0001Z" fill="#ED4C5C"/>
<path d="M4.06836 11.3062C4.64961 11.5125 5.28711 11.625 5.94336 11.625C6.59961 11.625 7.23711 11.5125 7.81836 11.3062V0.69375C7.23711 0.4875 6.59961 0.375 5.94336 0.375C5.28711 0.375 4.64961 0.4875 4.06836 0.69375V11.3062Z" fill="white"/>
</svg>
