<svg width="12" height="12" viewBox="0 0 12 12" fill="none" xmlns="http://www.w3.org/2000/svg">
<path d="M0.375 6C0.375 7.10625 0.69375 8.1375 1.2375 9H10.7438C11.2875 8.1375 11.6063 7.10625 11.6063 6C11.6063 4.89375 11.2875 3.8625 10.7438 3H1.2375C0.69375 3.8625 0.375 4.89375 0.375 6Z" fill="#FFCE31"/>
<path d="M10.7623 3C9.76855 1.425 8.00605 0.375 5.9998 0.375C3.99355 0.375 2.23105 1.425 1.2373 3H10.7623Z" fill="#ED4C5C"/>
<path d="M1.2373 9C2.23105 10.575 3.99355 11.625 5.9998 11.625C8.00605 11.625 9.76855 10.575 10.7623 9H1.2373Z" fill="#ED4C5C"/>
<path d="M1.72461 5.38135H2.32461V5.71885H1.72461V5.38135Z" fill="#C8B100"/>
<path d="M1.72461 7.85645H2.34336V8.17519H1.72461V7.85645Z" fill="#C8B100"/>
<path d="M1.66895 7.3313C1.6127 7.3688 1.5752 7.4063 1.5752 7.42505C1.5752 7.4438 1.59395 7.46255 1.63145 7.4813C1.66895 7.50005 1.70645 7.53755 1.6877 7.57505C1.7252 7.53755 1.74395 7.50005 1.74395 7.46255C1.74395 7.4063 1.70645 7.35005 1.66895 7.3313Z" fill="#ED4C5C"/>
<path d="M1.81836 5.71875H2.24961V7.85625H1.81836V5.71875Z" fill="white"/>
<path d="M2.70012 6.50625C2.60637 6.46875 2.43762 6.43125 2.25012 6.43125C2.19387 6.43125 2.11887 6.43125 2.04387 6.45C1.78137 6.4875 1.57512 6.6 1.59387 6.675L1.50012 6.46875C1.48137 6.375 1.70637 6.2625 1.98762 6.20625C2.08137 6.1875 2.17512 6.1875 2.25012 6.1875C2.43762 6.1875 2.60637 6.20625 2.70012 6.24375V6.50625Z" fill="#ED4C5C"/>
<path d="M1.81953 6.7875C1.70703 6.7875 1.61328 6.75 1.61328 6.69375C1.61328 6.65625 1.65078 6.6 1.72578 6.5625H1.83828L1.81953 6.7875Z" fill="#ED4C5C"/>
<path d="M2.25 6.61865C2.325 6.6374 2.38125 6.65615 2.41875 6.6749C2.4375 6.69365 2.3625 6.76865 2.25 6.8249V6.61865Z" fill="#ED4C5C"/>
<path d="M1.53792 7.20005C1.51917 7.16255 1.65042 7.08755 1.81917 7.0313C1.89417 7.01255 1.95042 6.97505 2.04417 6.93755C2.26917 6.8438 2.45667 6.71255 2.41917 6.67505L2.45667 6.90005C2.47542 6.93755 2.32542 7.05005 2.10042 7.16255C2.02542 7.20005 1.89417 7.2563 1.81917 7.27505C1.68792 7.31255 1.57542 7.38755 1.57542 7.4063L1.53792 7.20005Z" fill="#ED4C5C"/>
<path d="M5.75586 5.38135H6.35586V5.71885H5.75586V5.38135Z" fill="#C8B100"/>
<path d="M5.7373 7.85645H6.35605V8.17519H5.7373V7.85645Z" fill="#C8B100"/>
<path d="M6.41289 7.3313C6.46914 7.3688 6.50664 7.4063 6.50664 7.42505C6.50664 7.4438 6.48789 7.46255 6.45039 7.4813C6.41289 7.5188 6.37539 7.57505 6.39414 7.5938C6.35664 7.5563 6.33789 7.5188 6.33789 7.4813C6.33789 7.4063 6.37539 7.35005 6.41289 7.3313Z" fill="#ED4C5C"/>
<path d="M5.83105 5.71875H6.2623V7.85625H5.83105V5.71875Z" fill="white"/>
<path d="M5.38184 6.50625C5.47559 6.46875 5.64434 6.43125 5.83184 6.43125C5.88809 6.43125 5.96309 6.43125 6.03809 6.45C6.30059 6.4875 6.50684 6.6 6.48809 6.675L6.58184 6.45C6.60058 6.35625 6.37559 6.24375 6.09434 6.1875H5.83184C5.64434 6.1875 5.47559 6.20625 5.38184 6.24375V6.50625Z" fill="#ED4C5C"/>
<path d="M6.26289 6.7875C6.37539 6.7875 6.46914 6.75 6.46914 6.69375C6.46914 6.65625 6.43164 6.6 6.35664 6.5625H6.24414L6.26289 6.7875Z" fill="#ED4C5C"/>
<path d="M5.83178 6.61865C5.75678 6.6374 5.70053 6.65615 5.66303 6.6749C5.64428 6.69365 5.71928 6.76865 5.83178 6.8249V6.61865Z" fill="#ED4C5C"/>
<path d="M6.54435 7.19981C6.5631 7.16231 6.43185 7.0873 6.2631 7.03105C6.1881 7.0123 6.13185 6.9748 6.0381 6.9373C5.8131 6.84355 5.6256 6.7123 5.6631 6.6748L5.6256 6.8998C5.60685 6.9373 5.75685 7.04981 5.98185 7.16231C6.05685 7.19981 6.1881 7.25605 6.2631 7.2748C6.39435 7.3123 6.50685 7.40605 6.4881 7.4248L6.54435 7.19981Z" fill="#ED4C5C"/>
<path d="M4.03164 4.18115C4.38789 4.18115 5.11914 4.25615 5.38164 4.51865C5.10039 5.19365 4.65039 4.9124 4.03164 4.9124C3.43164 4.9124 2.96289 5.19365 2.68164 4.51865C2.94414 4.25615 3.65664 4.18115 4.03164 4.18115Z" fill="#ED4C5C"/>
<path d="M4.95078 4.93125C4.72578 4.8 4.38828 4.78125 4.03203 4.78125C3.67578 4.78125 3.33828 4.81875 3.11328 4.93125L3.18828 5.25C3.39453 5.30625 3.69453 5.34375 4.03203 5.34375C4.36953 5.34375 4.65078 5.30625 4.87578 5.25L4.95078 4.93125Z" fill="#C8B100"/>
<path d="M5.26914 4.125C5.19414 4.06875 5.04414 4.0125 4.91289 4.0125C4.85664 4.0125 4.80039 4.0125 4.74414 4.03125C4.74414 4.03125 4.63164 3.88125 4.36914 3.88125C4.27539 3.88125 4.20039 3.9 4.12539 3.9375V3.91875C4.10664 3.88125 4.06914 3.84375 4.03164 3.84375C3.99414 3.84375 3.93789 3.9 3.93789 3.9375V3.95625C3.86289 3.91875 3.78789 3.9 3.69414 3.9C3.43164 3.9 3.31914 4.06875 3.31914 4.05C3.26289 4.03125 3.20664 4.03125 3.15039 4.03125C2.28789 4.03125 2.71914 4.6125 2.71914 4.6125L2.81289 4.5C2.60664 4.2375 2.79414 4.0875 3.16914 4.0875C3.22539 4.0875 3.26289 4.0875 3.30039 4.10625C3.16914 4.29375 3.41289 4.4625 3.41289 4.4625L3.46914 4.36875C3.33789 4.275 3.31914 3.95625 3.69414 3.95625C3.78789 3.95625 3.86289 3.975 3.93789 4.03125C3.93789 4.05 3.91914 4.3125 3.90039 4.35L4.05039 4.48125L4.20039 4.35C4.18164 4.29375 4.16289 4.05 4.16289 4.03125C4.21914 3.99375 4.31289 3.95625 4.40664 3.95625C4.80039 3.95625 4.80039 4.275 4.63164 4.36875L4.68789 4.4625C4.68789 4.4625 4.89414 4.29375 4.80039 4.10625C4.83789 4.10625 4.89414 4.0875 4.93164 4.0875C5.38164 4.0875 5.40039 4.425 5.28789 4.5L5.36289 4.6125C5.32539 4.6125 5.53164 4.35 5.26914 4.125Z" fill="#C8B100"/>
<path d="M3.91895 3.76875C3.91895 3.7125 3.9752 3.65625 4.03145 3.65625C4.10645 3.65625 4.14395 3.7125 4.14395 3.76875C4.14395 3.825 4.0877 3.88125 4.03145 3.88125C3.9752 3.88125 3.91895 3.825 3.91895 3.76875Z" fill="#005BBF"/>
<path d="M3.99395 3.44995V3.5062H3.9377V3.56245H3.99395V3.74995H3.91895V3.8062H4.14395L4.1627 3.7687L4.14395 3.74995H4.06895V3.56245H4.1252V3.5062H4.06895V3.44995H3.99395Z" fill="#C8B100"/>
<path d="M4.03145 5.30615C3.73145 5.30615 3.46895 5.26865 3.2627 5.2124C3.46895 5.15615 3.73145 5.11865 4.03145 5.11865C4.33145 5.11865 4.59395 5.15615 4.8002 5.2124C4.6127 5.26865 4.33145 5.30615 4.03145 5.30615Z" fill="#ED4C5C"/>
<path d="M4.0502 8.55005C3.69395 8.55005 3.35645 8.4563 3.05645 8.32505C2.83145 8.21255 2.7002 8.0063 2.7002 7.76255V6.86255H5.4002V7.76255C5.4002 8.0063 5.2502 8.2313 5.04395 8.32505C4.74395 8.47505 4.40645 8.55005 4.0502 8.55005Z" fill="white"/>
<path d="M4.03125 5.36255H5.38125V6.86255H4.03125V5.36255Z" fill="white"/>
<path d="M4.0502 7.76255C4.0502 8.1188 3.7502 8.40005 3.3752 8.40005C3.0002 8.40005 2.7002 8.1188 2.7002 7.76255V6.86255H4.0502V7.76255Z" fill="#ED4C5C"/>
<path d="M2.98145 8.28745C3.01895 8.3062 3.0752 8.3437 3.1502 8.36245V6.82495H3.0002L2.98145 8.28745Z" fill="#C8B100"/>
<path d="M2.68164 7.7437C2.68164 7.9312 2.75664 8.0812 2.83164 8.1562V6.82495H2.68164V7.7437Z" fill="#C8B100"/>
<path d="M3.28125 8.39995H3.43125V6.82495H3.28125V8.39995Z" fill="#C7B500"/>
<path d="M3.58105 8.36245C3.6373 8.3437 3.7123 8.3062 3.7498 8.28745V6.82495H3.5998L3.58105 8.36245Z" fill="#C8B100"/>
<path d="M2.68164 5.36255H4.03164V6.86255H2.68164V5.36255Z" fill="#ED4C5C"/>
<path d="M3.90039 8.15625C3.97539 8.1 4.03164 7.96875 4.05039 7.81875V6.84375H3.90039V8.15625Z" fill="#C8B100"/>
<path d="M5.3998 6.8623V7.76231C5.3998 8.11856 5.0998 8.39981 4.7248 8.39981C4.3498 8.39981 4.0498 8.11856 4.0498 7.76231V6.8623H5.3998Z" fill="#ED4C5C"/>
<path d="M4.91338 5.62492C4.96963 5.73742 4.96963 6.01867 4.80088 5.96242C4.83838 5.98117 4.85713 6.11242 4.91338 6.18742C5.00713 6.29992 5.11963 6.20617 5.10088 6.07492C5.06338 5.86867 5.08213 5.73742 5.11963 5.53117C5.11963 5.54992 5.21338 5.54992 5.25088 5.51242C5.23213 5.56867 5.21338 5.64367 5.25088 5.64367C5.21338 5.69992 5.11963 5.79367 5.10088 5.84992C5.08213 5.98117 5.28838 6.22492 5.06338 6.28117C4.91338 6.31867 5.00713 6.43117 5.06338 6.48742C5.06338 6.48742 4.98838 6.73117 5.02588 6.71242C4.87588 6.76867 4.91338 6.63742 4.91338 6.63742C4.98838 6.41242 4.78213 6.39367 4.80088 6.35617C4.61338 6.33742 4.81963 6.52492 4.65088 6.52492C4.61338 6.52492 4.53838 6.56242 4.53838 6.56242C4.33213 6.54367 4.44463 6.35617 4.51963 6.37492C4.57588 6.39367 4.63213 6.48742 4.63213 6.35617C4.63213 6.35617 4.53838 6.20617 4.78213 6.20617C4.68838 6.20617 4.63213 6.13117 4.59463 6.03742C4.55713 6.05617 4.50088 6.14992 4.29463 6.16867C4.29463 6.16867 4.23838 5.96242 4.29463 5.99992C4.36963 6.03742 4.40713 6.03742 4.48213 5.96242C4.44463 5.90617 4.21963 5.83117 4.25713 5.69992C4.25713 5.66242 4.36963 5.60617 4.36963 5.60617C4.35088 5.69992 4.40713 5.79367 4.51963 5.79367C4.66963 5.81242 4.61338 5.75617 4.63213 5.71867C4.65088 5.68117 4.76338 5.73742 4.72588 5.64367C4.72588 5.62492 4.59463 5.60617 4.63213 5.54992C4.70713 5.45617 4.81963 5.53117 4.91338 5.62492Z" fill="#ED4C5C"/>
<path d="M4.0502 8.3625L4.0127 8.26875L4.0502 8.15625L4.0877 8.26875L4.0502 8.3625Z" fill="#ED4C5C"/>
<path d="M3.09395 5.68125V5.775H3.13145V5.85H3.0377V6.0375H3.09395V6.45H2.98145V6.65625H3.7502V6.45H3.65645V6.0375H3.69395V5.85H3.6002V5.775H3.65645V5.68125H3.46895V5.775H3.50645V5.85H3.4127V5.625H3.46895V5.53125H3.2627V5.625H3.31895V5.85H3.2252V5.775H3.2627V5.68125H3.09395Z" fill="#C8B100"/>
<path d="M5.2123 7.98755V7.05005H4.2373V7.98755L4.6873 8.1938H4.74355L5.2123 7.98755ZM4.6873 7.12505V7.4438L4.36855 7.12505H4.6873ZM4.29355 7.1438L4.66855 7.5188L4.29355 7.8938V7.1438ZM4.33105 7.9688L4.6873 7.61255V8.13755L4.33105 7.9688ZM4.74355 8.1188V7.5938L5.0998 7.95005L4.74355 8.1188ZM5.1373 7.8938L4.7623 7.5188L5.1373 7.1438V7.8938ZM4.74355 7.12505H5.0623L4.74355 7.4438V7.12505Z" fill="#C8B100"/>
<path d="M3.59961 6.8437C3.59961 6.56245 3.78711 6.3562 4.03086 6.3562C4.27461 6.3562 4.46211 6.5812 4.46211 6.8437C4.46211 7.1062 4.27461 7.3312 4.03086 7.3312C3.78711 7.3312 3.59961 7.12495 3.59961 6.8437Z" fill="#ED4C5C"/>
<path d="M3.73145 6.8438C3.73145 6.63755 3.8627 6.48755 4.03145 6.48755C4.2002 6.48755 4.33145 6.6563 4.33145 6.8438C4.33145 7.05005 4.2002 7.20005 4.03145 7.20005C3.88145 7.2188 3.73145 7.05005 3.73145 6.8438Z" fill="#005BBF"/>
<path d="M3.9002 6.6001L3.8252 6.80635L3.88145 6.8251L3.84395 6.9001H3.95645L3.91895 6.8251L3.9752 6.80635L3.9002 6.6001Z" fill="#C8B100"/>
<path d="M4.18145 6.6001L4.10645 6.80635L4.1627 6.8251L4.1252 6.9001H4.2377L4.21895 6.8251L4.2752 6.80635L4.18145 6.6001Z" fill="#C8B100"/>
<path d="M4.0498 6.84375L3.95605 7.05L4.0123 7.06875L3.99355 7.14375H4.0873L4.06855 7.06875L4.1248 7.05L4.0498 6.84375Z" fill="#C8B100"/>
</svg>
