<svg width="12" height="12" viewBox="0 0 12 12" fill="none" xmlns="http://www.w3.org/2000/svg">
<path d="M0.375 6.0001C0.375 8.45635 1.95 10.5376 4.125 11.3063V0.693848C1.95 1.4626 0.375 3.54385 0.375 6.0001Z" fill="#428BC1"/>
<path d="M11.625 6.0001C11.625 3.54385 10.0687 1.4626 7.875 0.693848V11.3063C10.0687 10.5376 11.625 8.45635 11.625 6.0001Z" fill="#ED4C5C"/>
<path d="M4.125 11.3062C4.70625 11.5125 5.34375 11.625 6 11.625C6.65625 11.625 7.29375 11.5125 7.875 11.3062V0.69375C7.29375 0.4875 6.65625 0.375 6 0.375C5.34375 0.375 4.70625 0.4875 4.125 0.69375V11.3062Z" fill="#F9F9F9"/>
</svg>
