<svg width="12" height="12" viewBox="0 0 12 12" fill="none" xmlns="http://www.w3.org/2000/svg">
<path d="M3.1875 10.875V1.125C1.5 2.1 0.375 3.91875 0.375 6C0.375 8.08125 1.5 9.9 3.1875 10.875Z" fill="#699635"/>
<path d="M6 0.375C4.96875 0.375 4.0125 0.65625 3.1875 1.125V10.875C4.0125 11.3625 4.96875 11.625 6 11.625C9.1125 11.625 11.625 9.1125 11.625 6C11.625 2.8875 9.1125 0.375 6 0.375Z" fill="#ED4C5C"/>
<path d="M3.1875 3.75C1.95 3.75 0.9375 4.7625 0.9375 6C0.9375 7.2375 1.95 8.25 3.1875 8.25C4.425 8.25 5.4375 7.2375 5.4375 6C5.4375 4.7625 4.425 3.75 3.1875 3.75ZM3.1875 7.96875C2.1 7.96875 1.21875 7.0875 1.21875 6C1.21875 4.9125 2.1 4.03125 3.1875 4.03125C4.275 4.03125 5.15625 4.9125 5.15625 6C5.15625 7.0875 4.275 7.96875 3.1875 7.96875Z" fill="#FFE62E"/>
<path d="M3.95664 8.19385C3.91914 8.23134 3.86289 8.23134 3.82539 8.19385L1.25664 4.8001C1.21914 4.7626 1.21914 4.70635 1.25664 4.66885L1.31289 4.6126C1.35039 4.5751 1.40664 4.5751 1.44414 4.6126L4.01289 8.00635C4.05039 8.04385 4.05039 8.1001 4.01289 8.1376L3.95664 8.19385Z" fill="#FFE62E"/>
<path d="M3.22559 3.65625C3.28184 3.65625 3.31934 3.69375 3.31934 3.75V8.25C3.31934 8.30625 3.28184 8.34375 3.22559 8.34375H3.13184C3.07559 8.34375 3.03809 8.30625 3.03809 8.25V3.75C3.03809 3.69375 3.07559 3.65625 3.13184 3.65625H3.22559Z" fill="#FFE62E"/>
<path d="M5.41875 6.24385L3.1875 5.8501V6.13135L5.38125 6.5251C5.4375 6.5251 5.475 6.50635 5.49375 6.4501L5.5125 6.35635C5.5125 6.31885 5.475 6.2626 5.41875 6.24385Z" fill="#FFE62E"/>
<path d="M3.18821 5.83118L1.42571 4.59368C1.38821 4.55618 1.33196 4.57493 1.29446 4.61243L1.23821 4.68743C1.20071 4.72493 1.21946 4.78118 1.25696 4.81868L3.18821 6.16868V5.83118Z" fill="#FFE62E"/>
<path d="M3.11289 5.625L1.35039 7.3875C1.31289 7.425 1.31289 7.48125 1.35039 7.51875L1.42539 7.59375C1.46289 7.63125 1.51914 7.63125 1.55664 7.59375L3.11289 6.0375V5.625Z" fill="#FFE62E"/>
<path d="M3.1878 4.78125L0.844049 5.8875C0.806549 5.90625 0.769049 5.9625 0.806549 6.01875L0.844049 6.1125C0.862799 6.15 0.919049 6.1875 0.975299 6.15L3.1878 5.1V4.78125Z" fill="#FFE62E"/>
<path d="M5.26934 5.10005L3.03809 4.7063V4.98755L5.23184 5.3813C5.28809 5.3813 5.32559 5.36255 5.34434 5.3063L5.36309 5.21255C5.34434 5.1563 5.30684 5.10005 5.26934 5.10005Z" fill="#FFE62E"/>
<path d="M3.16827 7.29365C3.13077 7.3124 3.09327 7.36865 3.13077 7.4249L3.16827 7.51865C3.18702 7.55615 3.24327 7.59365 3.29952 7.55615L5.17452 6.69365L5.26827 6.3374L3.16827 7.29365Z" fill="#FFE62E"/>
<path d="M3.16933 6.6562L1.06934 5.88745V6.18745L3.16933 6.9562V6.6562Z" fill="#FFE62E"/>
<path d="M1.70605 7.2749V7.55615L4.48105 7.74365C4.59355 7.66865 4.6873 7.5749 4.78105 7.48115L1.70605 7.2749Z" fill="#FFE62E"/>
<path d="M2.25 5.0625V6.375C2.25 6.9 2.6625 7.3125 3.1875 7.3125C3.7125 7.3125 4.125 6.9 4.125 6.375V5.0625H2.25Z" fill="white"/>
<path d="M3.1875 7.6875C2.45625 7.6875 1.875 7.10625 1.875 6.375V4.6875H4.5V6.375C4.5 7.10625 3.91875 7.6875 3.1875 7.6875ZM2.625 5.4375V6.375C2.625 6.69375 2.86875 6.9375 3.1875 6.9375C3.50625 6.9375 3.75 6.69375 3.75 6.375V5.4375H2.625Z" fill="#ED4C5C"/>
<path d="M3.01953 5.5124V5.8124C3.01953 5.86865 3.05703 5.90615 3.11328 5.90615H3.26328C3.31953 5.90615 3.35703 5.86865 3.35703 5.8124V5.49365H3.01953V5.5124Z" fill="#0071BC"/>
<path d="M3.01953 5.9812V6.29995C3.01953 6.3562 3.05703 6.3937 3.11328 6.3937H3.26328C3.31953 6.3937 3.35703 6.3562 3.35703 6.29995V5.9812H3.01953Z" fill="#0071BC"/>
<path d="M2.64453 5.9812V6.29995C2.64453 6.3562 2.68203 6.3937 2.73828 6.3937H2.88828C2.94453 6.3937 2.98203 6.3562 2.98203 6.29995V5.9812H2.64453Z" fill="#0071BC"/>
<path d="M3.39453 5.9812V6.29995C3.39453 6.3562 3.43203 6.3937 3.48828 6.3937H3.63828C3.69453 6.3937 3.73203 6.3562 3.73203 6.29995V5.9812H3.39453Z" fill="#0071BC"/>
<path d="M3.01953 6.43115V6.7499C3.01953 6.80615 3.05703 6.84365 3.11328 6.84365H3.26328C3.31953 6.84365 3.35703 6.80615 3.35703 6.7499V6.43115H3.01953Z" fill="#0071BC"/>
<path d="M3.18594 6.20635C3.20665 6.20635 3.22344 6.18956 3.22344 6.16885C3.22344 6.14814 3.20665 6.13135 3.18594 6.13135C3.16523 6.13135 3.14844 6.14814 3.14844 6.16885C3.14844 6.18956 3.16523 6.20635 3.18594 6.20635Z" fill="white"/>
<path d="M3.11172 6.3001C3.13243 6.3001 3.14922 6.28331 3.14922 6.2626C3.14922 6.24189 3.13243 6.2251 3.11172 6.2251C3.09101 6.2251 3.07422 6.24189 3.07422 6.2626C3.07422 6.28331 3.09101 6.3001 3.11172 6.3001Z" fill="white"/>
<path d="M3.26211 6.3001C3.28282 6.3001 3.29961 6.28331 3.29961 6.2626C3.29961 6.24189 3.28282 6.2251 3.26211 6.2251C3.2414 6.2251 3.22461 6.24189 3.22461 6.2626C3.22461 6.28331 3.2414 6.3001 3.26211 6.3001Z" fill="white"/>
<path d="M3.11172 6.1126C3.13243 6.1126 3.14922 6.09581 3.14922 6.0751C3.14922 6.05439 3.13243 6.0376 3.11172 6.0376C3.09101 6.0376 3.07422 6.05439 3.07422 6.0751C3.07422 6.09581 3.09101 6.1126 3.11172 6.1126Z" fill="white"/>
<path d="M3.26211 6.1126C3.28282 6.1126 3.29961 6.09581 3.29961 6.0751C3.29961 6.05439 3.28282 6.0376 3.26211 6.0376C3.2414 6.0376 3.22461 6.05439 3.22461 6.0751C3.22461 6.09581 3.2414 6.1126 3.26211 6.1126Z" fill="white"/>
<path d="M3.18594 5.7376C3.20665 5.7376 3.22344 5.72081 3.22344 5.7001C3.22344 5.67939 3.20665 5.6626 3.18594 5.6626C3.16523 5.6626 3.14844 5.67939 3.14844 5.7001C3.14844 5.72081 3.16523 5.7376 3.18594 5.7376Z" fill="white"/>
<path d="M3.11172 5.83135C3.13243 5.83135 3.14922 5.81456 3.14922 5.79385C3.14922 5.77314 3.13243 5.75635 3.11172 5.75635C3.09101 5.75635 3.07422 5.77314 3.07422 5.79385C3.07422 5.81456 3.09101 5.83135 3.11172 5.83135Z" fill="white"/>
<path d="M3.26211 5.83135C3.28282 5.83135 3.29961 5.81456 3.29961 5.79385C3.29961 5.77314 3.28282 5.75635 3.26211 5.75635C3.2414 5.75635 3.22461 5.77314 3.22461 5.79385C3.22461 5.81456 3.2414 5.83135 3.26211 5.83135Z" fill="white"/>
<path d="M3.11172 5.64385C3.13243 5.64385 3.14922 5.62706 3.14922 5.60635C3.14922 5.58564 3.13243 5.56885 3.11172 5.56885C3.09101 5.56885 3.07422 5.58564 3.07422 5.60635C3.07422 5.62706 3.09101 5.64385 3.11172 5.64385Z" fill="white"/>
<path d="M3.26211 5.64385C3.28282 5.64385 3.29961 5.62706 3.29961 5.60635C3.29961 5.58564 3.28282 5.56885 3.26211 5.56885C3.2414 5.56885 3.22461 5.58564 3.22461 5.60635C3.22461 5.62706 3.2414 5.64385 3.26211 5.64385Z" fill="white"/>
<path d="M3.56094 6.20635C3.58165 6.20635 3.59844 6.18956 3.59844 6.16885C3.59844 6.14814 3.58165 6.13135 3.56094 6.13135C3.54023 6.13135 3.52344 6.14814 3.52344 6.16885C3.52344 6.18956 3.54023 6.20635 3.56094 6.20635Z" fill="white"/>
<path d="M3.48672 6.3001C3.50743 6.3001 3.52422 6.28331 3.52422 6.2626C3.52422 6.24189 3.50743 6.2251 3.48672 6.2251C3.46601 6.2251 3.44922 6.24189 3.44922 6.2626C3.44922 6.28331 3.46601 6.3001 3.48672 6.3001Z" fill="white"/>
<path d="M3.63711 6.3001C3.65782 6.3001 3.67461 6.28331 3.67461 6.2626C3.67461 6.24189 3.65782 6.2251 3.63711 6.2251C3.6164 6.2251 3.59961 6.24189 3.59961 6.2626C3.59961 6.28331 3.6164 6.3001 3.63711 6.3001Z" fill="white"/>
<path d="M3.48672 6.1126C3.50743 6.1126 3.52422 6.09581 3.52422 6.0751C3.52422 6.05439 3.50743 6.0376 3.48672 6.0376C3.46601 6.0376 3.44922 6.05439 3.44922 6.0751C3.44922 6.09581 3.46601 6.1126 3.48672 6.1126Z" fill="white"/>
<path d="M3.63711 6.1126C3.65782 6.1126 3.67461 6.09581 3.67461 6.0751C3.67461 6.05439 3.65782 6.0376 3.63711 6.0376C3.6164 6.0376 3.59961 6.05439 3.59961 6.0751C3.59961 6.09581 3.6164 6.1126 3.63711 6.1126Z" fill="white"/>
<path d="M2.81094 6.20635C2.83165 6.20635 2.84844 6.18956 2.84844 6.16885C2.84844 6.14814 2.83165 6.13135 2.81094 6.13135C2.79023 6.13135 2.77344 6.14814 2.77344 6.16885C2.77344 6.18956 2.79023 6.20635 2.81094 6.20635Z" fill="white"/>
<path d="M2.73672 6.3001C2.75743 6.3001 2.77422 6.28331 2.77422 6.2626C2.77422 6.24189 2.75743 6.2251 2.73672 6.2251C2.71601 6.2251 2.69922 6.24189 2.69922 6.2626C2.69922 6.28331 2.71601 6.3001 2.73672 6.3001Z" fill="white"/>
<path d="M2.88711 6.3001C2.90782 6.3001 2.92461 6.28331 2.92461 6.2626C2.92461 6.24189 2.90782 6.2251 2.88711 6.2251C2.8664 6.2251 2.84961 6.24189 2.84961 6.2626C2.84961 6.28331 2.8664 6.3001 2.88711 6.3001Z" fill="white"/>
<path d="M2.73672 6.1126C2.75743 6.1126 2.77422 6.09581 2.77422 6.0751C2.77422 6.05439 2.75743 6.0376 2.73672 6.0376C2.71601 6.0376 2.69922 6.05439 2.69922 6.0751C2.69922 6.09581 2.71601 6.1126 2.73672 6.1126Z" fill="white"/>
<path d="M2.88711 6.1126C2.90782 6.1126 2.92461 6.09581 2.92461 6.0751C2.92461 6.05439 2.90782 6.0376 2.88711 6.0376C2.8664 6.0376 2.84961 6.05439 2.84961 6.0751C2.84961 6.09581 2.8664 6.1126 2.88711 6.1126Z" fill="white"/>
<path d="M3.18594 6.6751C3.20665 6.6751 3.22344 6.65831 3.22344 6.6376C3.22344 6.61689 3.20665 6.6001 3.18594 6.6001C3.16523 6.6001 3.14844 6.61689 3.14844 6.6376C3.14844 6.65831 3.16523 6.6751 3.18594 6.6751Z" fill="white"/>
<path d="M3.11172 6.76885C3.13243 6.76885 3.14922 6.75206 3.14922 6.73135C3.14922 6.71064 3.13243 6.69385 3.11172 6.69385C3.09101 6.69385 3.07422 6.71064 3.07422 6.73135C3.07422 6.75206 3.09101 6.76885 3.11172 6.76885Z" fill="white"/>
<path d="M3.26211 6.76885C3.28282 6.76885 3.29961 6.75206 3.29961 6.73135C3.29961 6.71064 3.28282 6.69385 3.26211 6.69385C3.2414 6.69385 3.22461 6.71064 3.22461 6.73135C3.22461 6.75206 3.2414 6.76885 3.26211 6.76885Z" fill="white"/>
<path d="M3.11172 6.58135C3.13243 6.58135 3.14922 6.56456 3.14922 6.54385C3.14922 6.52314 3.13243 6.50635 3.11172 6.50635C3.09101 6.50635 3.07422 6.52314 3.07422 6.54385C3.07422 6.56456 3.09101 6.58135 3.11172 6.58135Z" fill="white"/>
<path d="M3.26211 6.58135C3.28282 6.58135 3.29961 6.56456 3.29961 6.54385C3.29961 6.52314 3.28282 6.50635 3.26211 6.50635C3.2414 6.50635 3.22461 6.52314 3.22461 6.54385C3.22461 6.56456 3.2414 6.58135 3.26211 6.58135Z" fill="white"/>
<path d="M3 5.25H3.375L3.3375 5.0625V4.875H3.375V4.78125H3.31875V4.8375H3.3V4.78125H3.24375V4.8375H3.20625V4.78125H3.16875V4.8375H3.13125V4.78125H3.075V4.8375H3.0375V4.78125H3V4.875H3.0375V5.0625L3 5.25Z" fill="#FFE62E"/>
<path d="M3.24336 5.25015H3.22461V5.17515C3.22461 5.1564 3.20586 5.13765 3.18711 5.13765C3.16836 5.13765 3.14961 5.1564 3.14961 5.17515V5.25015H3.13086V5.17515C3.13086 5.13765 3.14961 5.1189 3.18711 5.1189C3.22461 5.1189 3.24336 5.13765 3.24336 5.17515V5.25015Z" fill="#3E4347"/>
<path d="M3.18672 5.0438H3.07422V4.95005C3.07422 4.91255 3.09297 4.8938 3.13047 4.8938C3.16797 4.8938 3.18672 4.91255 3.18672 4.95005V5.0438ZM3.09297 5.02505H3.16797V4.95005C3.16797 4.9313 3.14922 4.91255 3.13047 4.91255C3.11172 4.91255 3.09297 4.9313 3.09297 4.95005V5.02505Z" fill="#3E4347"/>
<path d="M3.3 5.0438H3.1875V4.95005C3.1875 4.91255 3.20625 4.8938 3.24375 4.8938C3.28125 4.8938 3.3 4.91255 3.3 4.95005V5.0438ZM3.20625 5.02505H3.28125V4.95005C3.28125 4.9313 3.2625 4.91255 3.24375 4.91255C3.225 4.91255 3.20625 4.9313 3.20625 4.95005V5.02505Z" fill="#3E4347"/>
<path d="M2.0625 5.25H2.4375L2.4 5.0625V4.875H2.4375V4.78125H2.38125V4.8375H2.3625V4.78125H2.30625V4.8375H2.26875V4.78125H2.23125V4.8375H2.19375V4.78125H2.1375V4.8375H2.1V4.78125H2.0625V4.875H2.1V5.0625L2.0625 5.25Z" fill="#FFE62E"/>
<path d="M2.30586 5.25015H2.28711V5.17515C2.28711 5.1564 2.26836 5.13765 2.24961 5.13765C2.23086 5.13765 2.21211 5.1564 2.21211 5.17515V5.25015H2.19336V5.17515C2.19336 5.13765 2.21211 5.1189 2.24961 5.1189C2.28711 5.1189 2.30586 5.13765 2.30586 5.17515V5.25015Z" fill="#3E4347"/>
<path d="M2.24922 5.0438H2.13672V4.95005C2.13672 4.91255 2.15547 4.8938 2.19297 4.8938C2.23047 4.8938 2.24922 4.91255 2.24922 4.95005V5.0438ZM2.15547 5.02505H2.23047V4.95005C2.23047 4.9313 2.21172 4.91255 2.19297 4.91255C2.17422 4.91255 2.15547 4.9313 2.15547 4.95005V5.02505Z" fill="#3E4347"/>
<path d="M2.3625 5.0438H2.25V4.95005C2.25 4.91255 2.26875 4.8938 2.30625 4.8938C2.34375 4.8938 2.3625 4.91255 2.3625 4.95005V5.0438ZM2.26875 5.02505H2.34375V4.95005C2.34375 4.9313 2.325 4.91255 2.30625 4.91255C2.2875 4.91255 2.26875 4.9313 2.26875 4.95005V5.02505Z" fill="#3E4347"/>
<path d="M2.0625 6.3562H2.4375L2.4 6.1687V5.9812H2.4375V5.88745H2.4V5.9437H2.3625V5.88745H2.325V5.9437H2.26875V5.88745H2.23125V5.9437H2.19375V5.88745H2.15625V5.9437H2.11875V5.88745H2.0625V5.9812H2.11875V6.1687L2.0625 6.3562Z" fill="#FFE62E"/>
<path d="M2.30586 6.35635H2.28711V6.28135C2.28711 6.2626 2.26836 6.24385 2.24961 6.24385C2.23086 6.24385 2.21211 6.2626 2.21211 6.28135V6.35635H2.19336V6.28135C2.19336 6.24385 2.21211 6.2251 2.24961 6.2251C2.28711 6.2251 2.30586 6.24385 2.30586 6.28135V6.35635Z" fill="#3E4347"/>
<path d="M2.24922 6.15H2.13672V6.05625C2.13672 6.01875 2.15547 6 2.19297 6C2.23047 6 2.24922 6.01875 2.24922 6.05625V6.15ZM2.15547 6.13125H2.23047V6.05625C2.23047 6.0375 2.21172 6.01875 2.19297 6.01875C2.17422 6.01875 2.15547 6.0375 2.15547 6.05625V6.13125Z" fill="#3E4347"/>
<path d="M2.38008 6.15H2.26758V6.05625C2.26758 6.01875 2.28633 6 2.32383 6C2.36133 6 2.38008 6.01875 2.38008 6.05625V6.15ZM2.28633 6.13125H2.36133V6.05625C2.36133 6.0375 2.34258 6.01875 2.32383 6.01875C2.30508 6.01875 2.28633 6.0375 2.28633 6.05625V6.13125Z" fill="#3E4347"/>
<path d="M3.9375 6.37505H4.3125L4.275 6.18755V6.00005H4.3125V5.92505H4.25625V5.96255H4.2375V5.92505H4.18125V5.96255H4.14375V5.92505H4.10625V5.96255H4.06875V5.92505H4.0125V5.96255H3.975V5.92505H3.9375V6.00005H3.975V6.18755L3.9375 6.37505Z" fill="#FFE62E"/>
<path d="M4.18086 6.37515H4.16211V6.30015C4.16211 6.2814 4.14336 6.26265 4.12461 6.26265C4.10586 6.26265 4.08711 6.2814 4.08711 6.30015V6.37515H4.06836V6.30015C4.06836 6.26265 4.08711 6.2439 4.12461 6.2439C4.16211 6.2439 4.18086 6.26265 4.18086 6.30015V6.37515Z" fill="#3E4347"/>
<path d="M4.12422 6.1688H4.01172V6.07505C4.01172 6.03755 4.03047 6.0188 4.06797 6.0188C4.10547 6.0188 4.12422 6.03755 4.12422 6.07505V6.1688ZM4.03047 6.15005H4.10547V6.07505C4.10547 6.0563 4.08672 6.03755 4.06797 6.03755C4.04922 6.03755 4.03047 6.0563 4.03047 6.07505V6.15005Z" fill="#3E4347"/>
<path d="M4.2375 6.1688H4.125V6.07505C4.125 6.03755 4.14375 6.0188 4.18125 6.0188C4.21875 6.0188 4.2375 6.03755 4.2375 6.07505V6.1688ZM4.14375 6.15005H4.21875V6.07505C4.21875 6.0563 4.2 6.03755 4.18125 6.03755C4.1625 6.03755 4.14375 6.0563 4.14375 6.07505V6.15005Z" fill="#3E4347"/>
<path d="M3.9375 5.25H4.3125L4.275 5.0625V4.875H4.3125V4.78125H4.25625V4.8375H4.2375V4.78125H4.18125V4.8375H4.14375V4.78125H4.10625V4.8375H4.06875V4.78125H4.0125V4.8375H3.975V4.78125H3.9375V4.875H3.975V5.0625L3.9375 5.25Z" fill="#FFE62E"/>
<path d="M4.18086 5.25015H4.16211V5.17515C4.16211 5.1564 4.14336 5.13765 4.12461 5.13765C4.10586 5.13765 4.08711 5.1564 4.08711 5.17515V5.25015H4.06836V5.17515C4.06836 5.13765 4.08711 5.1189 4.12461 5.1189C4.16211 5.1189 4.18086 5.13765 4.18086 5.17515V5.25015Z" fill="#3E4347"/>
<path d="M4.12422 5.0438H4.01172V4.95005C4.01172 4.91255 4.03047 4.8938 4.06797 4.8938C4.10547 4.8938 4.12422 4.91255 4.12422 4.95005V5.0438ZM4.03047 5.02505H4.10547V4.95005C4.10547 4.9313 4.08672 4.91255 4.06797 4.91255C4.04922 4.91255 4.03047 4.9313 4.03047 4.95005V5.02505Z" fill="#3E4347"/>
<path d="M4.2375 5.0438H4.125V4.95005C4.125 4.91255 4.14375 4.8938 4.18125 4.8938C4.21875 4.8938 4.2375 4.91255 4.2375 4.95005V5.0438ZM4.14375 5.02505H4.21875V4.95005C4.21875 4.9313 4.2 4.91255 4.18125 4.91255C4.1625 4.91255 4.14375 4.9313 4.14375 4.95005V5.02505Z" fill="#3E4347"/>
<path d="M2.6625 7.42495L2.925 7.1437L2.75625 7.04995L2.625 6.9187L2.6625 6.8812L2.60625 6.82495L2.56875 6.86245L2.60625 6.89995L2.5875 6.9187L2.55 6.8812L2.5125 6.9187L2.55 6.93745L2.5125 6.97495L2.49375 6.93745L2.45625 6.97495L2.49375 7.01245L2.45625 7.0312L2.4375 6.9937L2.4 7.0312L2.41875 7.0687L2.4 7.08745L2.38125 7.04995L2.34375 7.08745L2.4 7.1437H2.41875L2.4375 7.12495L2.56875 7.2562L2.6625 7.42495Z" fill="#FFE62E"/>
<path d="M2.83008 7.2376L2.75508 7.2001C2.73633 7.18135 2.71758 7.18135 2.69883 7.2001C2.68008 7.21885 2.68008 7.2376 2.69883 7.25635L2.75508 7.3126L2.73633 7.33135L2.68008 7.2751C2.66133 7.25635 2.66133 7.21885 2.68008 7.2001C2.69883 7.18135 2.73633 7.18135 2.75508 7.2001L2.83008 7.2376Z" fill="#3E4347"/>
<path d="M2.64336 7.1438L2.56836 7.2188L2.51211 7.16255C2.49336 7.1438 2.49336 7.1063 2.51211 7.08755C2.53086 7.0688 2.56836 7.0688 2.58711 7.08755L2.64336 7.1438ZM2.56836 7.20005L2.62461 7.1438L2.56836 7.08755C2.54961 7.0688 2.53086 7.0688 2.51211 7.08755C2.49336 7.1063 2.49336 7.12505 2.51211 7.1438L2.56836 7.20005Z" fill="#3E4347"/>
<path d="M2.73711 7.05005L2.66211 7.12505L2.60586 7.0688C2.58711 7.05005 2.58711 7.01255 2.60586 6.9938C2.62461 6.97505 2.66211 6.97505 2.68086 6.9938L2.73711 7.05005ZM2.66211 7.1063L2.71836 7.05005L2.66211 6.9938C2.64336 6.97505 2.62461 6.97505 2.60586 6.9938C2.58711 7.01255 2.58711 7.0313 2.60586 7.05005L2.66211 7.1063Z" fill="#3E4347"/>
<path d="M3.71172 7.42495L3.44922 7.1437L3.59922 7.04995L3.73047 6.9187L3.71172 6.8812L3.76797 6.82495L3.80547 6.86245L3.76797 6.89995L3.78672 6.9187L3.82422 6.8812L3.86172 6.9187L3.82422 6.93745L3.86172 6.97495L3.88047 6.93745L3.91797 6.97495L3.88047 7.01245L3.91797 7.0312L3.93672 6.9937L3.97422 7.0312L3.93672 7.0687L3.97422 7.08745L3.99297 7.04995L4.03047 7.08745L3.97422 7.1437H3.95547L3.93672 7.12495L3.80547 7.2562L3.71172 7.42495Z" fill="#FFE62E"/>
<path d="M3.54297 7.2376L3.61797 7.2001C3.63672 7.18135 3.65547 7.18135 3.67422 7.2001C3.69297 7.21885 3.69297 7.2376 3.67422 7.25635L3.59922 7.3126L3.61797 7.33135L3.67422 7.2751C3.69297 7.25635 3.69297 7.21885 3.67422 7.2001C3.65547 7.18135 3.61797 7.18135 3.59922 7.2001L3.54297 7.2376Z" fill="#3E4347"/>
<path d="M3.78672 7.08755C3.80547 7.0688 3.84297 7.0688 3.86172 7.08755C3.88047 7.1063 3.88047 7.1438 3.86172 7.16255L3.80547 7.2188L3.73047 7.1438L3.78672 7.08755ZM3.84297 7.1438C3.86172 7.12505 3.86172 7.1063 3.84297 7.08755C3.82422 7.0688 3.80547 7.0688 3.78672 7.08755L3.74922 7.1438L3.80547 7.20005L3.84297 7.1438Z" fill="#3E4347"/>
<path d="M3.69297 6.9938C3.71172 6.97505 3.74922 6.97505 3.76797 6.9938C3.78672 7.01255 3.78672 7.05005 3.76797 7.0688L3.71172 7.12505L3.63672 7.05005L3.69297 6.9938ZM3.76797 7.05005C3.78672 7.0313 3.78672 7.01255 3.76797 6.9938C3.74922 6.97505 3.73047 6.97505 3.71172 6.9938L3.65547 7.05005L3.71172 7.1063L3.76797 7.05005Z" fill="#3E4347"/>
</svg>
