<?xml version="1.0" standalone="no"?>
<!DOCTYPE svg PUBLIC "-//W3C//DTD SVG 1.1//EN" "http://www.w3.org/Graphics/SVG/1.1/DTD/svg11.dtd" >
<svg xmlns="http://www.w3.org/2000/svg">
<metadata>Generated by IcoMoon</metadata>
<defs>
<font id="icomoon" horiz-adv-x="1024">
<font-face units-per-em="1024" ascent="960" descent="-64" />
<missing-glyph horiz-adv-x="1024" />
<glyph unicode="&#x20;" horiz-adv-x="512" d="" />
<glyph unicode="&#xe900;" glyph-name="add-airplane-ticket" horiz-adv-x="1303" d="M116.217 957.769c-25.231-5.074-52.464-20.576-69.549-39.569-12.127-13.477-19.529-25.79-26.954-44.853l-5.586-14.385-0.628-141.751-0.652-141.751h9.008c25.301 0 58.725-15.362 80.279-36.916 24.533-24.533 36.892-54.745 36.892-90.171s-12.36-65.638-36.892-90.171c-21.507-21.507-54.978-36.916-80.186-36.916h-8.915v-137.491c0-151.364-0.163-149.199 13.663-177.433 8.985-18.365 34.448-44.317 52.999-54 7.402-3.864 20.995-8.938 30.212-11.312 16.479-4.213 26.069-4.283 541.818-4.283s525.339 0.070 541.818 4.283c9.217 2.374 22.81 7.448 30.212 11.312 18.551 9.683 44.015 35.636 52.999 54 14.641 29.863 13.663-1.559 13.663 442.127 0 393.387-0.093 402.535-4.283 418.944-3.178 11.631-7.069 21.675-11.843 31.199l0.438-0.964c-9.264 17.527-33.797 42.036-49.857 49.811-27.722 13.407 12.802 12.522-568.725 12.266-292.183-0.14-535.138-1.024-539.933-1.978zM1116.618 797.049v-45.621h93.43v-47.786h-93.43v-93.43h-45.621v93.43h-47.855c-36.45 0-49.624 0.722-55.257 3.072-7.635 3.189-14.198 12.802-14.198 20.809s6.564 17.62 14.198 20.809c5.633 2.351 18.807 3.096 55.257 3.096h47.855v91.242h45.621v-45.621zM696.464 568.711c66.802-62.263 124.387-115.961 127.971-119.359l6.517-6.191 80.372 21.554c50.695 13.593 84.469 21.577 91.405 21.623 0.121 0.001 0.265 0.001 0.408 0.001 23.573 0 44.019-13.385 54.154-32.969l0.16-0.34c15.409-29.56 0.861-70.549-29.654-83.631-10.707-4.585-575.592-155.74-576.709-154.32-0.628 0.791-103.415 179.667-104.765 182.344-0.349 0.652 12.709 4.748 28.979 9.078l29.607 7.891 32.284-25.371c17.736-13.942 36.008-28.141 40.57-31.539l8.31-6.168 75.228 20.11c41.361 11.079 75.228 20.948 75.228 21.949s-34.123 60.96-75.833 133.208l-75.81 131.37 50.625 14.012c19.11 5.284 35.822 9.706 37.125 9.799 1.28 0.070 57.003-50.788 123.828-113.051z" />
<glyph unicode="&#xe901;" glyph-name="arobase" d="M512-64h256v102.4h-256c-222.208 0-409.6 187.392-409.6 409.6s187.392 409.6 409.6 409.6c222.208 0 409.6-187.392 409.6-409.6v-73.216c0-40.448-36.352-80.384-76.8-80.384s-76.8 39.936-76.8 80.384v73.216c0 141.312-114.688 256-256 256s-256-114.688-256-256c0-141.312 114.688-256 256-256 70.656 0 135.168 28.672 181.248 75.264 33.28-45.568 90.624-75.264 151.552-75.264 100.864 0 179.2 81.92 179.2 182.784v73.216c0 282.624-229.376 512-512 512s-512-229.376-512-512c0-282.624 229.376-512 512-512zM512 294.4c-84.992 0-153.6 68.608-153.6 153.6s68.608 153.6 153.6 153.6c84.992 0 153.6-68.608 153.6-153.6s-68.608-153.6-153.6-153.6z" />
<glyph unicode="&#xe902;" glyph-name="attachment" d="M899.196 355.194l-480.004 480c-80 83.2-211.2 83.2-294.4 3.2s-83.2-214.4 0-294.4l3.2-3.2 89.6-92.8 44.8 44.8-92.8 92.8c-54.4 54.4-54.4 147.2 0 201.6s147.2 57.6 201.6 3.2l480-480c57.6-54.4 57.6-147.198 3.204-201.601-54.404-57.6-147.204-57.6-201.604-3.196l-3.2 3.196-236.8 236.801c-32 32-28.8 83.2 0 112 32 28.8 80 28.8 112 0l131.2-131.2 44.8 44.8-134.4 134.4c-57.6 54.4-147.2 51.2-201.6-6.4-51.2-54.4-51.2-140.8 0-198.4l240-239.998c80-83.2 211.204-83.2 294.404-3.204 83.2 80.004 83.2 214.401 0 297.601 0 0 0-3.2 0 0z" />
<glyph unicode="&#xe903;" glyph-name="award-trophy" d="M178.087 921.043c0 7.38 2.932 14.458 8.15 19.676s12.296 8.15 19.676 8.15h612.174c7.379 0 14.458-2.932 19.676-8.15s8.15-12.296 8.15-19.676v-27.826h139.13c7.379 0 14.458-2.932 19.676-8.15s8.15-12.296 8.15-19.676v-166.957c0-36.9-14.659-72.288-40.751-98.38s-61.48-40.751-98.38-40.751h-46.83c-19.89-56.129-54.408-105.926-99.985-144.25-45.579-38.322-100.563-63.78-159.272-73.739v-171.576h166.957c7.379 0 14.458-2.932 19.676-8.15s8.15-12.297 8.15-19.676v-166.957c0-7.379-2.932-14.458-8.15-19.676s-12.297-8.15-19.676-8.15h-445.217c-7.379 0-14.458 2.932-19.676 8.15s-8.15 12.297-8.15 19.676v166.957c0 7.379 2.932 14.458 8.15 19.676s12.297 8.15 19.676 8.15h166.957v171.576c-58.709 9.96-113.693 35.417-159.272 73.739-45.577 38.324-80.094 88.122-99.984 144.25h-46.831c-36.9 0-72.288 14.659-98.38 40.751s-40.75 61.48-40.75 98.38v166.957c0 7.38 2.932 14.458 8.15 19.676s12.296 8.15 19.676 8.15h139.13v27.826zM845.913 670.609v166.957h111.304v-139.13c0-22.141-8.795-43.373-24.451-59.029-15.654-15.654-36.886-24.449-59.027-24.449h-27.826v55.652zM178.087 837.565h-111.304v-139.13c0-22.141 8.795-43.373 24.45-59.029 15.655-15.654 36.888-24.449 59.028-24.449h27.826v222.609z" />
<glyph unicode="&#xe904;" glyph-name="baseline-airplane-ticket" horiz-adv-x="1303" d="M1175.796 960h-1036.16c-70.4 0-127.36-57.6-127.36-128v-256c70.4 0 127.36-57.6 127.36-128s-56.96-128-128-128v-256c0-70.4 57.6-128 128-128h1024c70.4 0 128 57.6 128 128v768c0 70.4-51.84 128-115.84 128zM1018.356 364.8l-567.040-151.040-106.24 184.32 59.52 16 80.64-63.36 152.96 40.96-153.6 266.24 89.6 24.32 256.64-239.36 156.16 41.6c15.784 4.173 32.575 1.941 46.72-6.209 14.145-8.152 24.497-21.562 28.8-37.311 3.98-15.944 1.594-32.812-6.649-47.027-8.243-14.217-21.697-24.664-37.511-29.133z" />
<glyph unicode="&#xe905;" glyph-name="baseline-call" d="M967.68 255.716c-69.973 0-137.671 11.377-200.817 31.857-9.893 3.354-20.53 3.851-30.693 1.436s-19.439-7.644-26.766-15.089l-89.315-112.071c-160.996 76.8-311.752 221.867-391.965 388.551l110.933 94.436c15.36 15.928 19.912 38.115 13.653 58.027-21.048 63.147-31.857 130.844-31.857 200.817 0 30.72-25.6 56.32-56.32 56.32h-196.836c-30.72 0-67.698-13.653-67.698-56.32 0-528.497 439.751-967.68 967.68-967.68 40.388 0 56.32 35.84 56.32 67.132v196.264c0 30.72-25.6 56.32-56.32 56.32z" />
<glyph unicode="&#xe906;" glyph-name="baseline-photo-library" d="M992 256v576c0 52.8-43.2 96-96 96h-576c-52.8 0-96-43.2-96-96v-576c0-52.8 43.2-96 96-96h576c52.8 0 96 43.2 96 96zM464 448l97.44-130.080 142.56 178.080 192-240h-576l144 192zM32 736v-672c0-52.8 43.2-96 96-96h672v96h-672v672h-96z" />
<glyph unicode="&#xe907;" glyph-name="baseline-sports-score" horiz-adv-x="1144" d="M619.448 740.587l-116.367 31.18 31.18 116.366 116.365-31.18-31.178-116.366zM883.357 794.592l-116.363 31.18-31.184-116.366 116.369-31.18 31.178 116.366zM378.36 306.302l116.366-31.178 31.18 116.365-116.366 31.18-31.18-116.367zM1022.548 383.135l31.178 116.366-116.363 31.18-31.178-116.366 116.363-31.18zM960.187 150.402l31.184 116.369-116.369 31.178-31.178-116.363 116.363-31.184zM611.093 243.947l116.363-31.184 31.184 116.369-116.369 31.178-31.178-116.363zM1116.088 732.232l-116.363 31.18-31.184-116.366 116.369-31.18 31.178 116.366zM704.632 593.041l31.178 116.366-116.363 31.18-31.181-116.366 116.366-31.18zM324.355 570.216l31.18 116.366 116.366-31.18 31.18 116.366-116.366 31.18 31.18 116.366-116.366 31.18-249.441-930.922 116.366-31.184 124.72 465.463 116.366-31.18 31.18 116.366-116.366 31.18zM758.639 329.132l116.363-31.184 31.184 116.367-116.369 31.18-31.178-116.364zM557.086 507.855l-31.18-116.366 116.365-31.18 31.184 116.366-116.369 31.18zM471.901 655.401l-31.18-116.366 116.366-31.18 31.18 116.366-116.366 31.18zM673.455 476.676l116.363-31.18 31.178 116.366-116.363 31.18-31.178-116.366zM852.179 678.227l-31.184-116.366 116.369-31.18 31.178 116.366-116.363 31.18z" />
<glyph unicode="&#xe908;" glyph-name="birthday-cake" horiz-adv-x="957" d="M817.827 498.036h-224.784v196.174h-73.565c22.773 30.399 35.007 67.396 34.849 105.377 0 56.482-26.726 109.553-69.75 138.499l-18.252 12.281-18.249-12.281c-43.032-28.95-69.75-82.019-69.75-138.499-0.154-37.982 12.085-74.978 34.858-105.375h-81.706v-196.174h-192.086c-31.423-0.036-61.549-12.533-83.768-34.754-22.219-22.219-34.718-52.344-34.754-83.768v-367.692c0.019-17.337 6.915-33.957 19.174-46.216s28.88-19.155 46.217-19.176h784.696c17.337 0.020 33.959 6.916 46.218 19.176s19.153 28.879 19.173 46.216v367.689c-0.036 31.423-12.535 61.549-34.754 83.77-22.219 22.219-52.344 34.716-83.768 34.751zM466.325 866.936c14.285-17.746 22.61-41.822 22.61-67.351s-8.326-49.608-22.61-67.351c-14.283 17.744-22.608 41.822-22.608 67.353s8.326 49.603 22.608 67.349zM396.869 628.818h130.783v-130.783h-130.783v130.783zM86.261 379.514c0.016 14.087 5.619 27.592 15.579 37.552s23.465 15.563 37.551 15.58h678.435c14.087-0.018 27.59-5.621 37.55-15.58 9.962-9.96 15.565-23.465 15.58-37.552v-64.525l-44.139-19.478c-8.633-3.798-17.96-5.759-27.392-5.759s-18.759 1.961-27.392 5.759l-76.816 33.897-76.836-33.894c-8.633-3.798-17.96-5.759-27.392-5.759s-18.761 1.961-27.394 5.759l-76.813 33.897-76.836-33.894c-8.633-3.798-17.96-5.761-27.392-5.761s-18.761 1.963-27.392 5.761l-76.816 33.892-76.82-33.892c-8.633-3.798-17.961-5.761-27.393-5.761s-18.76 1.963-27.393 5.761l-60.481 26.68v57.32zM870.957 11.825h-784.696v238.897l34.081-15.035c16.951-7.46 35.269-11.311 53.788-11.311s36.837 3.851 53.787 11.311l50.43 22.25 50.432-22.25c16.949-7.46 35.268-11.311 53.787-11.311s36.837 3.851 53.787 11.311l50.43 22.25 50.428-22.25c16.949-7.46 35.266-11.311 53.784-11.311 18.521 0 36.837 3.851 53.787 11.311l50.436 22.25 50.428-22.252c16.952-7.457 35.268-11.309 53.787-11.309s36.835 3.851 53.784 11.309l17.764 7.836 0.016-231.696h-0.040z" />
<glyph unicode="&#xe909;" glyph-name="bull-empty" horiz-adv-x="1062" d="M490.542 958.389c-251.4-19.087-452.633-203.662-486.406-446.144-4.288-30.699-4.288-98.549 0-129.248 28.422-204.042 176.606-370.857 379.888-427.588 18.48-5.161 51.988-12.143 73.731-15.407 25.69-3.871 127.161-3.263 153.192 0.873 144.427 22.958 266.73 94.944 349.645 205.711 51.614 67.779 86.875 150.654 98.436 240.94l0.264 2.528c2.998 24.058 2.998 91.073 0 115.132-20.453 162.489-116.915 304.601-262.063 385.96-91.453 51.304-200.778 75.249-306.688 67.242zM557.822 768.995c151.409-11.536 275.458-114.411 307.409-254.967 22.692-99.801-7.286-204.876-80.41-281.757-131.601-138.469-358.638-143.212-496.803-10.473-44.043 41.939-75.99 96.209-90.307 157.268l-0.425 2.148c-23.831 104.355 10.549 215.198 90.732 292.231 62.765 60.336 146.058 94.336 237.928 97.107 4.402 0.152 18.746-0.569 31.876-1.556z" />
<glyph unicode="&#xe90a;" glyph-name="bull-fill" horiz-adv-x="1062" d="M967.111 448c0-227.184-191.992-417.185-436.148-417.185-244.158 0-436.148 190.001-436.148 417.185s191.991 417.185 436.148 417.185c244.156 0 436.148-190.001 436.148-417.185z" />
<glyph unicode="&#xe90b;" glyph-name="calendar" d="M330.563 904.586c-9.201-3.897-16.24-11.376-19.465-20.641l-0.074-0.244c-1.174-8.778-1.844-18.926-1.844-29.23 0-1.706 0.018-3.407 0.055-5.105l-0.004 0.253v-27.547l-39.719-0.961c-41.961-1.089-54.005-2.691-77.452-10.57-31.019-10.263-57.446-27.249-78.604-49.325l-0.064-0.068c-29.218-28.412-49.695-65.674-57.096-107.454l-0.176-1.196c-3.395-18.898-3.395-476.497 0-495.396 7.45-41.432 26.625-77.493 53.925-105.625l-0.049 0.050c18.642-19.411 32.352-29.469 56.567-41.384 23.703-11.723 45.228-17.938 70.917-20.564 12.172-1.281 104.422-1.602 287.833-1.217 245.296 0.577 271.113 0.897 282.708 3.523 40.295 9.097 71.942 25.753 100.13 52.788 19.731 18.963 29.725 32.544 41.705 56.888 11.211 22.614 17.681 44.395 20.436 68.355 2.37 20.884 2.37 448.886 0 469.771-2.948 25.394-10.174 48.509-20.966 69.489l0.53-1.134c-10.361 22.113-24.289 40.877-41.249 56.381l-0.136 0.122c-14.383 14.351-31.146 26.323-49.646 35.271l-1.091 0.476c-32.031 15.759-50.417 19.475-102.116 20.82l-39.591 0.961-0.513 31.070c-0.577 30.43-0.705 31.263-5.189 37.989-11.788 17.873-34.658 20.564-49.392 5.894-3.516-3.615-6.288-7.975-8.056-12.817l-0.080-0.252c-1.256-8.952-1.973-19.295-1.973-29.804 0-1.684 0.018-3.364 0.055-5.039l-0.004 0.25v-27.739h-276.494l-0.577 31.198c-0.448 27.739-0.897 31.839-4.036 37.092-6.003 9.834-16.676 16.299-28.858 16.299-3.698 0-7.257-0.596-10.586-1.697l0.238 0.068zM309.23 728.926c0-15.247 0.833-30.814 1.858-34.53 1.089-3.716 4.741-9.609 8.2-13.069 5.618-5.853 13.506-9.49 22.244-9.49 7.118 0 13.673 2.414 18.89 6.467l-0.070-0.052c11.852 8.584 12.877 11.98 13.453 47.278l0.577 31.198h276.494v-27.803c0-15.247 0.897-30.814 1.922-34.53s4.677-9.609 8.136-13.069c14.734-14.734 37.605-11.98 49.392 5.83 4.548 6.791 4.613 7.559 5.189 38.373l0.577 31.519 39.527-0.705c39.463-0.641 39.655-0.641 55.863-6.214 22.742-7.816 37.605-17.105 54.773-34.273s26.522-32.031 34.338-54.838c5.509-16.144 5.573-16.336 6.214-55.927l0.641-39.719h-789.571v34.209c0 38.181 1.922 51.442 10.25 71.686 13.966 33.953 44.139 63.422 77.964 76.234 20.18 7.623 29.853 8.905 67.65 9.097l35.491 0.128v-27.803zM906.741 332.635l-0.448-167.844-5.638-16.272c-7.944-22.87-17.297-37.669-34.402-54.773-14.739-15.476-33.153-27.318-53.848-34.138l-0.925-0.264-16.272-5.638h-565.416l-16.272 5.638c-20.439 6.81-37.951 17.629-52.374 31.616l0.035-0.034c-13.931 13.015-25.114 28.778-32.713 46.445l-0.343 0.897c-10.442 25.305-10.25 21.845-10.25 199.811v162.399h789.379l-0.513-167.844z" />
<glyph unicode="&#xe90c;" glyph-name="caret-top" horiz-adv-x="1792" d="M896 896l-896-896h1792l-896 896z" />
<glyph unicode="&#xe90d;" glyph-name="chat-bubble" horiz-adv-x="993" d="M869.246 174.986c59.19 54.399 92.703 126.911 92.703 202.156 0 79.968-36.302 154.754-102.22 210.6-64.155 54.331-149.073 84.258-239.123 84.258s-174.967-29.927-239.113-84.261c-65.918-55.842-102.22-130.628-102.22-210.596s36.302-154.757 102.22-210.6c64.146-54.337 149.063-84.26 239.113-84.26 11.999 0 24.073 0.546 36.045 1.632l20.452-18.283c70.461-62.967 160.569-97.628 253.806-97.634h31.030v68.115l-9.089 9.371c-35.849 37.081-64.261 81.088-83.605 129.502zM717.75 113.999l-41.041 36.684-13.684-1.731c-14.075-1.775-28.241-2.666-42.418-2.666-153.988 0-279.273 103.561-279.273 230.856 0 127.293 125.285 230.856 279.273 230.856s279.273-103.561 279.273-230.856c0-63.42-30.68-122.629-86.391-166.717l-17.873-14.141 8.248-24.070c16.899-49.161 41.739-95.018 73.467-135.637-59.088 10.172-114.309 36.963-159.58 77.421zM116.722 325.049c29.047 37.916 51.853 80.499 67.506 126.045l8.184 23.949-17.856 14.134c-52.534 41.571-81.466 97.367-81.466 157.11 0 120.047 118.32 217.713 263.758 217.713 106.992 0 199.305-52.86 240.634-128.6 7.674 0.384 15.382 0.6 23.124 0.6 15.549 0 30.959-0.778 46.223-2.334-15.971 42.67-43.706 81.622-81.842 113.922-61.21 51.854-142.221 80.412-228.138 80.412-85.915 0-166.928-28.558-228.143-80.412-62.988-53.358-97.676-124.848-97.676-201.301 0-71.599 31.713-140.592 87.757-192.487-18.29-45.388-45.014-86.649-78.667-121.459l-9.090-9.371v-66.97h31.030c57.381 0.006 113.973 13.787 165.297 40.249-5.628 21.997-8.926 44.56-9.835 67.289-31.151-18.826-65.271-31.856-100.8-38.49z" />
<glyph unicode="&#xe90e;" glyph-name="chevron-down" horiz-adv-x="1843" d="M71.578 953.466c-38.81-13.414-61.235-39.629-68.71-80.589-1.341-5.173-2.111-11.112-2.111-17.231 0-7.707 1.222-15.13 3.482-22.083l-0.142 0.505c2.765-10.547 8.294-24.371 12.493-30.72 4.096-6.349 197.325-201.114 429.363-432.845 470.221-469.504 429.773-432.742 475.648-432.742s5.325-36.864 477.184 434.278c312.422 312.115 425.267 426.598 430.797 437.35 7.8 13.906 12.394 30.519 12.394 48.205 0 27.911-11.441 53.15-29.89 71.282l-0.014 0.014c-17.186 17.742-41.229 28.754-67.843 28.754-1.385 0-2.764-0.030-4.134-0.089l0.195 0.007c-47.309-0.102-12.493 31.13-438.579-394.342l-380.109-379.699-377.139 376.627c-207.36 207.155-381.235 379.494-386.253 382.874-16.289 9.428-35.694 15.297-56.402 16.070l-0.225 0.007c-10.912-0.586-21.151-2.603-30.813-5.87l0.81 0.238z" />
<glyph unicode="&#xe90f;" glyph-name="chevron-left" horiz-adv-x="623" d="M16.924 408.042l472.139-455.684c10.921-10.547 25.498-16.357 41.040-16.357 15.547 0 30.123 5.81 41.045 16.357l34.767 33.552c22.626 21.86 22.626 57.393 0 79.222l-396.467 382.655 396.908 383.082c10.921 10.548 16.949 24.609 16.949 39.603 0 15.010-6.028 29.071-16.949 39.627l-34.771 33.542c-10.926 10.548-25.498 16.359-41.040 16.359s-30.119-5.811-41.040-16.359l-472.58-456.101c-10.946-10.583-16.958-24.71-16.923-39.727-0.035-15.075 5.978-29.197 16.923-39.771z" />
<glyph unicode="&#xe910;" glyph-name="chevron-right" horiz-adv-x="683" d="M142.243 846.507c-10.083-9.714-19.635-19.644-28.799-29.927l-0.47-0.537c0-0.597 82.517-83.627 183.467-184.576l183.467-183.467-183.467-183.467c-61.133-60.791-120.922-120.93-180.364-181.411l-3.102-3.165c0-1.536 58.283-59.733 59.733-59.733 0.597 0 97.365 96.256 215.040 213.845l213.931 213.931-213.931 213.931c-70.769 71.061-140.839 140.753-211.24 210.111l-3.8 3.735c-0.597 0-14.336-13.141-30.464-29.269z" />
<glyph unicode="&#xe911;" glyph-name="circle-plus-fill" d="M512 960c-282.764 0-512-229.236-512-512s229.236-512 512-512c282.764 0 512 229.236 512 512s-229.236 512-512 512zM558.545 261.818c0-12.344-4.906-24.185-13.633-32.912s-20.568-13.633-32.912-13.633c-12.344 0-24.185 4.906-32.912 13.633s-13.633 20.568-13.633 32.912v139.636h-139.636c-12.345 0-24.184 4.906-32.913 13.633s-13.633 20.568-13.633 32.912c0 12.344 4.904 24.185 13.633 32.912s20.568 13.633 32.913 13.633h139.636v139.636c0 12.345 4.906 24.184 13.633 32.913s20.568 13.633 32.912 13.633c12.344 0 24.185-4.904 32.912-13.633s13.633-20.568 13.633-32.913v-139.636h139.636c12.344 0 24.185-4.906 32.912-13.633s13.633-20.568 13.633-32.912c0-12.344-4.906-24.185-13.633-32.912s-20.568-13.633-32.912-13.633h-139.636v-139.636z" />
<glyph unicode="&#xe912;" glyph-name="clock" d="M464.528 918.871c-118.449-13.228-221.201-65.070-301.689-152.219-114.071-123.526-152.964-302.155-101.122-464.202 50.677-158.32 184.404-280.449 346.824-316.687 32.791-7.313 53.239-9.688 91.294-10.713 61.018-1.584 110.531 5.776 166.425 24.873 154.222 52.587 272.438 184.544 307.977 343.889 7.313 32.791 9.688 53.239 10.713 91.294 1.258 48.535-2.376 83.702-13.228 126.973-44.669 177.977-187.991 314.591-367.132 349.945-40.756 8.058-102.147 11.039-140.062 6.847zM542.593 826.646c77.926-6.521 153.663-37.17 211.979-85.844 17.56-14.672 48.349-46.672 60.692-63.16 37.973-49.823 64.273-110.507 73.726-176.624l0.24-2.051c3.866-26.503 3.866-76.156 0-102.659-14.016-97.799-63.18-182.107-134.050-241.294l-0.609-0.495c-38.396-31.721-83.885-56.448-133.596-71.44l-2.739-0.71c-131.957-37.729-270.947-3.26-369.042 91.527-31.862 30.044-58.179 65.547-77.536 105.078l-0.949 2.145c-24.321 48.623-38.557 105.932-38.557 166.566 0 60.597 14.219 117.872 39.503 168.672l-0.992-2.202c20.334 41.673 46.665 77.173 78.351 107.056l0.18 0.168c50.61 49.291 115.226 84.435 187.318 98.904l2.397 0.401c21.579 4.714 46.366 7.414 71.785 7.414 11.231 0 22.339-0.527 33.301-1.558l-1.401 0.106zM496.341 747.416c-9.176-3.26-18.072-10.853-24.128-20.588l-5.124-8.244v-304.251l4.658-13.648c9.875-28.925 15.045-35.446 79.696-100.47 32.512-32.745 62.415-61.437 66.468-63.813 8.664-5.17 24.92-7.033 35.726-4.099 9.735 2.655 20.681 11.365 26.922 21.426 4.704 7.592 5.17 9.642 5.124 22.963 0 10.993-0.792 16.163-3.167 20.634-1.723 3.307-28.739 31.72-59.993 63.207s-58.27 59.9-59.993 63.207c-3.028 5.636-3.26 13.694-4.052 150.402l-0.838 144.487-5.17 8.338c-8.399 13.91-23.434 23.068-40.608 23.068-5.559 0-10.895-0.96-15.849-2.722l0.33 0.103z" />
<glyph unicode="&#xe913;" glyph-name="close-fill" d="M602.236 447.988l275.2 274.56c12.051 12.051 18.822 28.397 18.822 45.44s-6.771 33.389-18.822 45.44c-12.051 12.051-28.397 18.822-45.44 18.822s-33.389-6.77-45.44-18.822l-274.56-275.2-274.56 275.2c-12.051 12.051-28.397 18.822-45.44 18.822s-33.389-6.77-45.44-18.822c-12.051-12.051-18.822-28.397-18.822-45.44s6.771-33.389 18.822-45.44l275.2-274.56-275.2-274.56c-5.998-5.949-10.76-13.028-14.010-20.827-3.249-7.799-4.922-16.165-4.922-24.613s1.673-16.814 4.922-24.613c3.25-7.799 8.012-14.877 14.010-20.827 5.949-5.999 13.028-10.76 20.827-14.010s16.164-4.922 24.613-4.922 16.814 1.673 24.613 4.922c7.799 3.25 14.877 8.010 20.827 14.010l274.56 275.2 274.56-275.2c5.949-5.999 13.028-10.76 20.827-14.010s16.164-4.922 24.613-4.922 16.814 1.673 24.613 4.922c7.799 3.25 14.877 8.010 20.827 14.010 5.998 5.949 10.76 13.028 14.010 20.827s4.922 16.164 4.922 24.613c0 8.448-1.673 16.814-4.922 24.613s-8.012 14.877-14.010 20.827l-275.2 274.56z" />
<glyph unicode="&#xe914;" glyph-name="cloud-download" d="M405.931 872.107c-53.53-8.602-100.67-31.269-138.87-64.058l0.374 0.314c-42.102-36.596-73.067-84.991-87.787-140.025l-0.448-1.969c-4.232-16.694-7.273-36.277-8.489-56.352l-0.044-0.906v-8.619l-8.96-4.181c-36.779-16.981-73.643-52.992-93.867-91.648-15.231-27.457-24.195-60.21-24.195-95.057 0-1.502 0.017-3 0.050-4.493l-0.004 0.223c-0.171-101.12 67.243-184.832 167.936-208.555 11.349-2.645 22.784-3.584 53.163-4.267 45.312-1.024 51.712 0.171 63.744 12.203 7.748 7.661 12.547 18.291 12.547 30.042 0 16.389-9.334 30.598-22.976 37.601l-0.238 0.111c-7.509 3.755-10.837 4.096-46.507 5.035-43.264 1.195-50.688 2.731-75.947 15.701-21.662 12.466-39.161 29.964-51.273 50.962l-0.354 0.665c-9.319 16.477-14.81 36.183-14.81 57.172 0 1.171 0.017 2.337 0.051 3.5l-0.004-0.171c0 23.381 3.925 39.509 14.592 60.075 7.168 13.824 24.405 33.963 36.267 42.581l6.571 4.779 6.571-12.971c7.936-15.872 11.605-19.883 23.211-25.6 7.68-3.755 10.752-4.267 20.736-3.755 21.57 0.047 39.060 17.448 39.253 38.979v0.018c0.512 10.325 0 13.056-5.376 25.003-11.947 26.539-13.995 36.181-13.995 64.597 0 18.688 0.853 29.269 3.157 39.253 16.567 71.382 70.547 126.98 139.688 145.606l1.368 0.314c18.261 4.779 54.869 6.485 75.349 3.499 58.471-9.412 107.43-43.747 136.387-91.549l0.488-0.867c2.475-4.267 4.523-8.533 4.523-9.472s-4.096-2.987-9.131-4.523c-12.187-3.194-22.041-11.345-27.451-22.113l-0.111-0.245c-2.738-4.737-4.353-10.419-4.353-16.479 0-1.683 0.125-3.336 0.365-4.952l-0.022 0.183c0.047-21.493 17.361-38.927 38.804-39.168h0.023c9.387-0.512 16.384 0.768 42.581 8.021 38.741 10.581 53.76 12.885 76.117 11.52 62.663-3.489 115.947-40.439 142.573-93.15l0.445-0.972c11.372-22.129 18.037-48.286 18.037-76 0-39.254-13.373-75.385-35.811-104.085l0.28 0.372c-29.303-37.989-73.73-63.079-124.105-66.195l-0.482-0.024c-8.949-0.453-17.363-1.734-25.475-3.776l0.899 0.192c-16.348-6.257-27.841-21.609-28.329-39.706l-0.001-0.059c0-17.408 12.459-34.645 29.013-40.107 16.213-5.376 60.928-0.427 93.867 10.411 19.712 6.485 55.552 25.088 71.68 37.205 51.107 38.888 87.269 95.125 99.745 159.798l0.265 1.653c4.096 22.357 4.181 66.731 0.085 88.747-9.258 48.687-30.861 91.261-61.42 125.711l0.236-0.271c-21.668 24.766-47.943 44.901-77.569 59.188l-1.45 0.63c-30.782 15.956-67.143 25.469-105.689 25.855l-0.124 0.001-27.307 1.024-7.936 16.384c-38.142 75.468-107.429 130.463-190.5 148.486l-1.841 0.335c-17.511 2.81-37.699 4.416-58.262 4.416-13.923 0-27.674-0.736-41.216-2.171l1.686 0.145zM496.811 445.099c-5.69-2.458-10.556-5.765-14.684-9.82l0.007 0.007c-13.397-13.397-12.8-4.693-12.8-174.507v-150.784l-20.053 16.043c-26.027 20.821-29.099 22.357-43.947 22.357-0.722 0.049-1.565 0.077-2.414 0.077-11.412 0-21.648-5.034-28.609-13.003l-0.038-0.045c-6.697-6.904-10.825-16.332-10.825-26.725 0-0.835 0.027-1.664 0.079-2.486l-0.006 0.112c-0.028-0.545-0.044-1.183-0.044-1.825 0-11.069 4.704-21.039 12.222-28.020l0.024-0.022c3.157-2.901 30.293-25.003 60.331-48.981 55.723-44.544 62.293-48.811 75.947-48.811s20.224 4.267 75.947 48.811c30.037 23.979 57.173 46.080 60.331 48.981 7.542 7.003 12.246 16.973 12.246 28.042 0 0.642-0.016 1.28-0.047 1.914l0.004-0.089c0.047 0.71 0.073 1.539 0.073 2.374 0 10.393-4.128 19.821-10.835 26.734l0.009-0.010c-6.999 8.013-17.235 13.047-28.647 13.047-0.849 0-1.692-0.028-2.527-0.083l0.114 0.006c-14.848 0-17.92-1.536-43.947-22.357l-20.053-16.043v150.784c0 169.728 0.597 161.109-12.715 174.507-7.746 7.719-18.433 12.491-30.234 12.491-5.353 0-10.477-0.982-15.201-2.775l0.294 0.098z" />
<glyph unicode="&#xe915;" glyph-name="comment-discussion" d="M74.667 917.328c-19.803 0-38.795-7.867-52.798-21.87s-21.869-32.995-21.869-52.797v-405.334c0-41.216 33.451-74.666 74.667-74.666h53.333v-65.836c0.004-12.288 3.652-24.307 10.484-34.522 6.831-10.221 16.538-18.189 27.895-22.893 11.356-4.698 23.852-5.933 35.908-3.533 12.056 2.394 23.131 8.314 31.825 17.005l109.824 109.779h264.064c19.803 0 38.797 7.866 52.8 21.869s21.869 32.995 21.869 52.797v405.334c0 19.802-7.866 38.794-21.869 52.797s-32.997 21.87-52.8 21.87h-533.333zM64 842.662c0 2.829 1.124 5.542 3.124 7.542s4.713 3.124 7.542 3.124h533.333c2.829 0 5.542-1.124 7.542-3.124s3.124-4.714 3.124-7.542v-405.334c0-2.829-1.124-5.542-3.124-7.542s-4.714-3.124-7.542-3.124h-277.333c-8.484-0.008-16.618-3.384-22.614-9.387l-116.053-116.052v93.439c0 8.486-3.372 16.626-9.373 22.627s-14.14 9.373-22.627 9.373h-85.333c-2.829 0-5.542 1.123-7.542 3.124s-3.124 4.714-3.124 7.542v405.334zM960 586.662c0 2.829-1.126 5.542-3.123 7.542-2.003 2-4.717 3.124-7.546 3.124h-149.331c-8.486 0-16.627 3.372-22.63 9.373-5.997 6.001-9.37 14.14-9.37 22.627s3.373 16.627 9.37 22.628c6.003 6.001 14.144 9.372 22.63 9.372h149.331c41.216 0 74.669-33.45 74.669-74.666v-405.331c0-19.808-7.866-38.797-21.869-52.8s-32.992-21.869-52.8-21.869h-53.331v-65.837c-0.006-12.288-3.654-24.307-10.483-34.522-6.829-10.221-16.538-18.189-27.898-22.893-11.354-4.698-23.853-5.933-35.904-3.533-12.058 2.394-23.136 8.314-31.827 17.005l-109.824 109.779h-221.397c-19.803 0-38.795 7.866-52.797 21.869s-21.869 32.992-21.869 52.8v62.502c0 8.486 3.372 16.627 9.373 22.63 6.001 5.997 14.14 9.37 22.627 9.37s16.626-3.373 22.627-9.37c6.001-6.003 9.373-14.144 9.373-22.63v-62.502c0-5.888 4.779-10.669 10.667-10.669h234.664c8.486-0.006 16.621-3.386 22.618-9.389l116.051-116.051v93.44c0 8.486 3.373 16.627 9.37 22.624 6.003 6.003 14.144 9.376 22.63 9.376h85.331c2.829 0 5.542 1.12 7.546 3.123 1.997 2.003 3.123 4.71 3.123 7.546v405.331z" />
<glyph unicode="&#xe916;" glyph-name="cross" d="M997.747 795.392l-347.392-347.392 347.392-347.392-138.368-138.368-347.392 346.411-346.409-346.411-139.35 139.349 346.411 346.411-346.411 346.411 139.35 139.349 346.409-346.411 347.392 346.411 138.368-138.368z" />
<glyph unicode="&#xe917;" glyph-name="dashboard" horiz-adv-x="926" d="M136.127 588.192c-24.788 0-48.56 9.846-66.087 27.374s-27.374 41.299-27.374 66.087v140.19c0 24.787 9.846 48.559 27.374 66.087s41.299 27.374 66.087 27.374h186.92c24.787 0 48.559-9.847 66.087-27.374s27.374-41.299 27.374-66.087v-140.19c0-24.787-9.847-48.56-27.374-66.087s-41.299-27.374-66.087-27.374h-186.92zM136.127-19.3c-24.788 0-48.56 9.845-66.087 27.375-17.527 17.525-27.374 41.296-27.374 66.087v373.838c0 24.789 9.846 48.561 27.374 66.088s41.299 27.374 66.087 27.374h186.92c24.787 0 48.559-9.847 66.087-27.374s27.374-41.299 27.374-66.088v-373.838c0-24.791-9.847-48.562-27.374-66.087-17.527-17.53-41.299-27.375-66.087-27.375h-186.92zM603.429-19.3c-24.786 0-48.557 9.845-66.087 27.375-17.525 17.525-27.375 41.296-27.375 66.087v93.457c0 24.791 9.85 48.562 27.375 66.087 17.53 17.53 41.301 27.375 66.087 27.375h186.919c24.791 0 48.562-9.845 66.087-27.375 17.53-17.525 27.375-41.296 27.375-66.087v-93.457c0-24.791-9.845-48.562-27.375-66.087-17.525-17.53-41.296-27.375-66.087-27.375h-186.919zM603.429 354.543c-24.786 0-48.557 9.845-66.087 27.375-17.525 17.525-27.375 41.296-27.375 66.082v373.843c0 24.787 9.85 48.559 27.375 66.087 17.53 17.527 41.301 27.374 66.087 27.374h186.919c24.791 0 48.562-9.847 66.087-27.374 17.53-17.527 27.375-41.299 27.375-66.087v-373.843c0-24.786-9.845-48.557-27.375-66.082-17.525-17.53-41.296-27.375-66.087-27.375h-186.919z" />
<glyph unicode="&#xe918;" glyph-name="dislike" d="M990.594 475.032c4.608 14.914 6.908 30.326 6.908 45.986 0 35.173-11.902 68.979-33.406 96.57 4.608 14.915 6.908 30.326 6.908 45.986 0 35.174-11.902 68.979-33.406 96.571 4.608 14.914 6.916 30.326 6.916 45.986 0 64.132-39.298 121.925-100.226 147.155-10.713 4.483-22.26 6.768-33.918 6.711h-769.41c-22.656 0-40.96-17.773-40.96-39.772v-452.404c0-21.999 18.304-39.771 40.96-39.771h165.504l109.825-386.28c17.663-62.267 76.543-105.771 143.103-105.771 38.016 0 73.472 14.667 99.712 41.511 26.24 26.719 39.68 61.771 37.76 98.682l-7.68 152.751h307.076c15.486 0 30.586 3.977 43.898 11.559 51.712 29.207 83.842 82.153 83.842 137.958 0 35.174-11.902 68.979-33.406 96.571zM92.16 517.662v352.975h103.68v-352.975h-103.68zM894.976 318.306h-402.432l12.288-246.587c0.768-14.785-6.016-28.711-18.688-37.904-7.808-5.593-17.408-8.452-27.008-8.326-12.265 0.11-24.16 4.088-33.9 11.327s-16.798 17.345-20.117 28.814l-127.36 448.054v356.952h531.712c12.792-5.568 23.662-14.606 31.287-26.028 7.633-11.421 11.705-24.74 11.721-38.354 0-12.056-2.946-23.49-8.83-33.93l-17.794-31.569 28.034-23.614c7.885-6.636 14.21-14.844 18.542-24.066s6.561-19.242 6.546-29.377c0-12.056-2.946-23.491-8.838-33.931l-17.786-31.568 28.026-23.615c7.893-6.635 14.218-14.843 18.55-24.066 4.324-9.222 6.561-19.243 6.538-29.378 0-12.056-2.938-23.49-8.83-33.93l-17.92-31.694 28.034-23.614c7.893-6.636 14.218-14.843 18.542-24.066 4.332-9.222 6.561-19.243 6.546-29.378 0-23.739-14.084-46.608-36.864-60.154z" />
<glyph unicode="&#xe919;" glyph-name="document" horiz-adv-x="796" d="M49.778-64h696.889c27.443 0 49.778 21.538 49.778 48.003v671.997c0 0.544-0.267 0.992-0.302 1.504-0.063 0.736-0.262 1.376-0.427 2.080-0.523 2.223-1.542 4.309-2.987 6.112-0.233 0.288-0.199 0.64-0.432 0.928l-265.482 288c-0.1 0.096-0.233 0.096-0.332 0.192-2.025 2.041-4.58 3.522-7.4 4.288-0.63 0.192-1.195 0.256-1.859 0.352-0.962 0.16-1.858 0.544-2.854 0.544h-464.593c-27.444 0-49.778-21.536-49.778-48v-927.997c0-26.465 22.334-48.003 49.778-48.003zM530.963 901.92l211.955-229.92h-195.362c-7.301 0-16.593 13.44-16.593 24v205.92zM33.185 912c0 4.243 1.748 8.313 4.86 11.314s7.332 4.686 11.733 4.686h448v-232c0-25.888 21.736-56 49.778-56h215.706v-655.997c0-4.244-1.752-8.317-4.864-11.315-3.112-3.004-7.327-4.688-11.73-4.688h-696.889c-9.292 0-16.593 7.043-16.593 16.003v927.997zM182.509 512h431.407c4.403 0 8.619 1.686 11.73 4.687s4.864 7.070 4.864 11.313c0 4.243-1.752 8.313-4.864 11.313s-7.327 4.687-11.73 4.687h-431.407c-4.4 0-8.621-1.686-11.733-4.687s-4.86-7.070-4.86-11.313c0-4.243 1.748-8.313 4.86-11.313s7.332-4.687 11.733-4.687zM182.509 384h431.407c4.403 0 8.619 1.684 11.73 4.688 3.112 2.999 4.864 7.069 4.864 11.312s-1.752 8.313-4.864 11.313c-3.112 3.001-7.327 4.687-11.73 4.687h-431.407c-4.4 0-8.621-1.686-11.733-4.687s-4.86-7.070-4.86-11.313c0-4.243 1.748-8.313 4.86-11.312 3.112-3.004 7.332-4.688 11.733-4.688zM182.509 640h199.111c4.401 0 8.621 1.686 11.733 4.687s4.86 7.070 4.86 11.313c0 4.243-1.748 8.313-4.86 11.313s-7.332 4.687-11.733 4.687h-199.111c-4.4 0-8.621-1.686-11.733-4.687s-4.86-7.070-4.86-11.313c0-4.243 1.748-8.313 4.86-11.313s7.332-4.687 11.733-4.687zM182.509 256h431.407c4.403 0 8.619 1.684 11.73 4.688 3.112 2.998 4.864 7.071 4.864 11.31 0 4.244-1.752 8.317-4.864 11.315-3.112 3.004-7.327 4.688-11.73 4.688h-431.407c-4.4 0-8.621-1.684-11.733-4.688-3.112-2.998-4.86-7.071-4.86-11.315 0-4.238 1.748-8.311 4.86-11.31 3.112-3.004 7.332-4.688 11.733-4.688zM182.509 128h431.407c4.403 0 8.619 1.684 11.73 4.688 3.112 2.998 4.864 7.071 4.864 11.31 0 4.244-1.752 8.317-4.864 11.315-3.112 3.004-7.327 4.688-11.73 4.688h-431.407c-4.4 0-8.621-1.684-11.733-4.688-3.112-2.998-4.86-7.071-4.86-11.315 0-4.238 1.748-8.311 4.86-11.31 3.112-3.004 7.332-4.688 11.733-4.688z" />
<glyph unicode="&#xe91a;" glyph-name="documents-outline" d="M414.911 923.209c-38.146-8.166-73.973-40.557-86.568-78.251-4.55-13.559-4.67-14.975-5.273-61.95l-0.603-48.060-61.77-0.783c-68.609-0.874-73.943-1.567-96.119-12.505-30.877-15.778-53.817-43.373-63.071-76.666l-0.205-0.863c-2.802-10.335-3.043-30.071-3.586-281.729-0.392-187.267 0-275.613 1.266-286.761 2.139-18.501 7.563-35.495 15.729-49.175 13.529-22.749 38.207-42.666 63.367-51.193l14.011-4.731h416.628l13.619 4.821c30.764 10.847 52.851 30.192 67.344 58.967 10.516 20.851 12.083 31.337 12.083 81.445v44.836l63.608 0.753c70.116 0.874 72.828 1.205 96.029 12.384 28.685 13.83 50.591 40.557 60.866 74.274l3.917 12.776 0.542 181.844c0.422 129.415 0.030 185.128-1.356 193.294-1.844 8.913-4.506 16.782-7.991 24.188l0.277-0.655c-6.056 12.655-13.469 20.399-204.804 214.416-39.743 40.316-44.715 44.082-65.205 49.416-13.891 3.616-215.772 3.525-232.736-0.090zM594.193 768.273c0-106.274 0.090-107.509 9.732-127.577 5.604-11.631 24.015-30.463 35.525-36.278 21.152-10.697 18.109-10.425 126.793-11.119l99.494-0.633-0.452-165.090-0.452-165.060-5.876-10.817c-6.251-11.9-16.379-21.052-28.674-25.904l-0.373-0.13c-7.955-3.013-13.589-3.284-68.459-3.284h-59.781l0.151 110.824c0.181 118.989 0.271 117.483-8.919 135.712-5.394 10.636-35.615 42.274-180.94 189.316-57.732 58.395-62.854 63.095-73.4 67.796-12.836 5.695-27.661 8.557-44.685 8.587h-11.631l1.085 87.924 4.761 9.732c6.719 13.65 20.61 25.973 34.169 30.282 9.853 3.134 16 3.345 91.268 3.435l80.662 0.090v-97.807zM819.426 679.566l24.768-25.19h-170.966l-5.635 3.827c-3.516 2.505-6.55 5.367-9.153 8.591l-0.068 0.087c-3.495 4.701-3.586 6.569-4.038 93.016l-0.512 88.225 165.603-168.556zM370.527 574.558c0.030-80.029 0.482-100.338 2.471-107.78 6.448-24.196 23.744-45.348 45.529-55.683 6.93-3.284 16.753-6.749 21.815-7.684 5.514-1.055 47.487-1.748 105.46-1.748h96.27l-0.452-164.337-0.482-164.337-4.49-9.612c-6.087-12.957-14.674-22.056-26.576-28.052l-9.913-5.032h-399.544l-9.732 4.791c-12.173 5.966-23.955 18.832-28.595 31.216-3.465 9.311-3.495 11.149-3.495 284.984v275.643l3.706 9.853c4.911 13.167 19.164 27.6 32.18 32.602 9.039 3.465 12.173 3.586 92.594 3.676l83.253 0.090v-98.59zM596.091 486.604l24.105-25.19h-83.494c-83.223 0-83.525 0.030-91.027 3.857-4.315 2.24-7.972 5.136-10.99 8.603l-0.038 0.044c-3.435 4.701-3.525 7.021-3.917 93.076l-0.392 88.225 70.809-71.713c30.093-30.383 61.042-61.952 91.831-93.679l3.114-3.223z" />
<glyph unicode="&#xe91b;" glyph-name="facebook-fill" d="M0 445.141c0-254.549 184.875-466.219 426.667-509.141v369.792h-128v142.208h128v113.792c0 128 82.475 199.083 199.125 199.083 36.949 0 76.8-5.675 113.749-11.349v-130.859h-65.408c-62.592 0-76.8-31.275-76.8-71.125v-99.541h136.533l-22.741-142.208h-113.792v-369.792c241.792 42.923 426.667 254.549 426.667 509.141 0 283.179-230.4 514.859-512 514.859s-512-231.68-512-514.859z" />
<glyph unicode="&#xe91c;" glyph-name="file-empty" horiz-adv-x="776" d="M768 672v-608c0-33.947-13.485-66.505-37.49-90.51s-56.563-37.49-90.51-37.49h-512c-33.948 0-66.505 13.485-90.51 37.49s-37.49 56.563-37.49 90.51v768c0 33.948 13.486 66.505 37.49 90.51s56.562 37.49 90.51 37.49h352l288-288zM576 672c-25.461 0-49.879 10.114-67.883 28.117-18.003 18.004-28.117 42.422-28.117 67.883v128h-352c-16.974 0-33.253-6.743-45.255-18.745s-18.745-28.281-18.745-45.255v-768c0-16.974 6.743-33.252 18.745-45.254s28.281-18.746 45.255-18.746h512c16.974 0 33.252 6.744 45.254 18.746s18.746 28.281 18.746 45.254v608h-128z" />
<glyph unicode="&#xe91d;" glyph-name="file-pdf" horiz-adv-x="860" d="M849.408 703.181l-235.11 236.544-25.088 10.035h-553.37l-35.84-35.84v-394.24h71.68v358.4h430.080v-250.88l35.84-35.84h250.88v-71.68h71.68v157.696l-10.752 25.805zM573.44 663.040v215.040l215.040-215.040h-215.040zM35.84 448l-35.84-35.84v-430.080l35.84-35.84h788.48l35.84 35.84v430.080l-35.84 35.84h-788.48zM788.48 89.6v-71.68h-716.8v358.4h716.8v-286.72zM215.040 161.28h-22.938v-71.68h-48.742v215.040h75.981c53.76 0 80.998-25.805 80.998-71.68 0.139-9.751-1.841-19.413-5.8-28.324-3.961-8.911-9.808-16.855-17.138-23.286-17.764-13.847-39.856-20.957-62.362-20.070zM210.739 265.216h-18.637v-66.662h18.637c25.805 0 38.707 11.469 38.707 33.69s-12.902 32.973-38.707 32.973zM501.76 119.706c10.586 10.426 18.864 22.96 24.297 36.79s7.899 28.647 7.242 43.491c0 71.68-37.99 104.653-114.688 104.653h-75.981v-215.040h75.981c15.161-0.735 30.319 1.548 44.593 6.717 14.273 5.167 27.378 13.117 38.556 23.388zM390.656 129.024v136.192h23.654c9.142 0.582 18.307-0.709 26.935-3.789 8.626-3.082 16.536-7.891 23.241-14.131 6.074-6.38 10.795-13.924 13.875-22.178s4.456-17.048 4.045-25.848c1.073-18.895-5.368-37.446-17.92-51.61-6.562-6.279-14.326-11.168-22.825-14.371-8.501-3.203-17.56-4.653-26.634-4.266h-24.371zM709.632 172.749h-69.53v-83.149h-48.742v215.040h124.723v-39.424h-75.981v-53.043h69.53v-39.424z" />
<glyph unicode="&#xe91e;" glyph-name="fluent_people-team-16-filled" d="M511.997 831.875c-16.792 0-33.42-3.308-48.934-9.734s-29.61-15.845-41.485-27.719c-11.874-11.875-21.293-25.971-27.719-41.485s-9.734-32.142-9.734-48.934c0-16.792 3.308-33.421 9.734-48.934s15.845-29.611 27.719-41.485c11.875-11.874 25.971-21.293 41.485-27.719s32.142-9.734 48.934-9.734c33.914 0 66.438 13.472 90.419 37.453s37.453 56.505 37.453 90.419c0 33.914-13.472 66.438-37.453 90.419s-56.505 37.453-90.419 37.453v0zM800 768c-25.459 0-49.882-10.115-67.885-28.118s-28.115-42.422-28.115-67.882c0-25.46 10.112-49.879 28.115-67.882s42.426-28.118 67.885-28.118c25.459 0 49.882 10.115 67.885 28.118s28.115 42.422 28.115 67.882c0 25.46-10.112 49.879-28.115 67.882s-42.426 28.118-67.885 28.118v0zM224 768c-25.46 0-49.879-10.115-67.882-28.118s-28.118-42.422-28.118-67.882c0-25.46 10.115-49.879 28.118-67.882s42.422-28.118 67.882-28.118c25.46 0 49.879 10.115 67.882 28.118s28.118 42.422 28.118 67.882c0 25.46-10.115 49.879-28.118 67.882s-42.422 28.118-67.882 28.118zM320 448.448c0.118 16.896 6.913 33.060 18.903 44.966s28.2 18.587 45.097 18.586h256c16.973 0 33.254-6.743 45.254-18.745s18.746-28.281 18.746-45.255v-192c-0.006-20.141-3.155-40.16-9.344-59.328-14.17-43.437-43.366-80.397-82.335-104.25-38.971-23.853-85.169-33.024-130.296-25.882-45.128 7.149-86.23 30.15-115.926 64.87-29.696 34.726-46.040 78.899-46.098 124.589v192.448zM256 448c0 23.36 6.208 45.184 17.152 64h-145.152c-16.974 0-33.252-6.743-45.255-18.745s-18.745-28.281-18.745-45.255v-160c-0.009-26.195 6.415-51.994 18.705-75.123 12.291-23.136 30.074-42.899 51.787-57.549 21.713-14.656 46.692-23.757 72.744-26.502s52.378 0.954 76.668 10.758c-18.42 36.058-27.986 75.987-27.904 116.48v191.936zM768.032 448v-192c0-41.92-10.048-81.472-27.904-116.416 24.288-9.805 50.611-13.504 76.666-10.758 26.048 2.746 51.027 11.846 72.742 26.502 21.715 14.65 39.494 34.413 51.789 57.549 12.288 23.13 18.714 48.928 18.707 75.123v160c0 16.974-6.746 33.252-18.746 45.255-12.006 12.002-28.282 18.745-45.254 18.745h-145.152c10.88-18.816 17.152-40.64 17.152-64z" />
<glyph unicode="&#xe91f;" glyph-name="folder" horiz-adv-x="1161" d="M1149.157 49.778v568.888c0 30.176-11.988 59.116-33.324 80.452-21.337 21.338-50.277 33.326-80.452 33.326h-384.797c-21.134 0-41.851 5.886-59.825 17-17.976 11.114-32.502 27.013-41.95 45.918l-50.857 101.717c-9.452 18.914-23.987 34.82-41.974 45.933s-38.714 16.996-59.858 16.986h-270.962c-30.176 0-59.116-11.987-80.453-33.325s-33.325-50.277-33.325-80.453v-796.444c0-30.176 11.987-59.116 33.325-80.454s50.277-33.324 80.453-33.324h910.223c30.176 0 59.116 11.988 80.452 33.324 21.337 21.338 33.324 50.278 33.324 80.454z" />
<glyph unicode="&#xe920;" glyph-name="folder-add" horiz-adv-x="1011" d="M150.514 829.345c-22.452-4.88-44.765-21.845-55.612-42.3-11.163-21.062-10.518-0.341-10.518-339.462 0-268.478 0.316-308.995 2.541-318.426 7.421-31.453 33.135-56.8 64.373-63.412 17.105-3.628 691.756-3.628 708.861 0 31.238 6.612 56.952 31.959 64.373 63.412 2.2 9.342 2.554 40.745 2.566 232.789 0.025 153.853-0.531 224.736-1.808 230.931-4.551 22.111-21.694 45.89-40.947 56.813-20.328 11.542-10.278 10.897-187.304 11.896l-160.123 0.91-9.279 4.096c-12.235 5.327-22.648 12.659-31.308 21.686l-0.032 0.033c-5.942 6.144-13.249 19.051-33.008 58.368-22.629 45.005-26.409 51.503-34.879 59.872-11.517 11.39-26.599 19.62-41.908 22.869-16.182 3.426-220.147 3.363-235.988-0.076zM531.012 438.304v-51.402h101.136v-50.568h-101.136v-102.83h-50.568v102.653l-54.664 0.506c-52.161 0.48-54.866 0.67-59.316 3.982-15.815 11.82-16.207 32.149-0.809 42.426 5.651 3.78 6.372 3.831 60.252 3.831h54.537v102.817h50.568v-51.415z" />
<glyph unicode="&#xe921;" glyph-name="fontisto_hotel" horiz-adv-x="1313" d="M1224.208-64.002h-1123.204c-26.726 0.178-52.307 10.948-71.21 29.974-18.902 19.029-29.606 44.787-29.794 71.7v634.795c0.178 26.916 10.87 52.676 29.765 71.713s44.471 29.815 71.197 30.005h1123.246c26.726-0.179 52.306-10.947 71.21-29.975 18.902-19.029 29.605-44.785 29.794-71.7v-634.922c0-13.341-2.609-26.551-7.678-38.876-5.071-12.326-12.502-23.525-21.869-32.957-9.367-9.434-20.487-16.918-32.726-22.023s-25.357-7.733-38.605-7.733h-0.127zM101.004 706.344h-0.297c-8.843 0-17.324-3.537-23.577-9.835s-9.766-14.837-9.766-23.743v-635.519c0-18.561 14.913-33.581 33.343-33.581h1123.838c8.844 0 17.326 3.539 23.579 9.837 6.253 6.295 9.766 14.837 9.766 23.743v635.519c0 8.907-3.513 17.446-9.766 23.743s-14.734 9.835-23.579 9.835h-1123.542zM960.265 878.631v-0.171c0-9.664-3.813-18.932-10.598-25.765s-15.988-10.672-25.584-10.672h-522.857c-9.597 0-18.799 3.839-25.584 10.672s-10.598 16.101-10.598 25.765v0.341c0 20.139 16.228 36.437 36.183 36.437h522.687c9.501-0.417 18.501-4.402 25.23-11.17 6.727-6.768 10.696-15.828 11.122-25.395v-0.043zM1086.856 851.499v-0.597c0-30.379-24.447-54.997-54.613-54.997h-1.187c-7.17 0-14.274 1.422-20.899 4.186s-12.646 6.815-17.717 11.922c-5.071 5.107-9.094 11.17-11.838 17.842s-4.156 13.824-4.156 21.047v54.101c0 30.379 24.445 54.997 54.61 54.997h1.187c30.166 0 54.613-24.619 54.613-54.997v-53.504zM348.812 851.499v-0.597c0-30.379-24.447-54.997-54.613-54.997h-1.187c-14.483 0-28.374 5.794-38.616 16.108s-15.994 24.303-15.994 38.889v54.101c0 30.379 24.445 54.997 54.61 54.997h1.187c30.166 0 54.613-24.619 54.613-54.997v-53.504zM1263.315 878.631v-0.171c0-9.664-3.811-18.932-10.596-25.765-6.787-6.833-15.99-10.672-25.584-10.672h-90.539c-9.597 0-18.799 3.839-25.584 10.672s-10.598 16.101-10.598 25.765v0.341c0 20.139 16.228 36.437 36.183 36.437h90.368c9.501-0.417 18.503-4.402 25.23-11.17 6.729-6.768 10.696-15.828 11.122-25.395v-0.043zM223.568 878.631v-0.171c0-9.664-3.812-18.932-10.598-25.765s-15.988-10.672-25.584-10.672h-89.226c-9.596 0-18.799 3.839-25.584 10.672s-10.598 16.101-10.598 25.765v0.341c0 20.139 16.227 36.437 36.182 36.437h90.37c9.365-0.467 18.201-4.514 24.704-11.317s10.185-15.848 10.292-25.291h0.042zM239.716 338.859v-85.335h82.149v85.335h49.824v-222.464h-49.824v93.609h-82.149v-93.609h-49.825v222.464h49.825zM618.189 230.273c1.536-14.906-0.053-29.97-4.666-44.219-4.612-14.247-12.146-27.361-22.109-38.489-9.966-11.13-22.141-20.028-35.738-26.119-13.597-6.088-28.314-9.234-43.195-9.232l-3.43 0.042h-1.229c-14.421-0.004-28.681 3.041-41.859 8.938-13.176 5.899-24.977 14.521-34.636 25.304-9.657 10.783-16.958 23.492-21.428 37.298s-6.010 28.405-4.521 42.85l-0.042-0.425c-1.244 14.846 0.588 29.789 5.376 43.885 4.788 14.098 12.43 27.040 22.441 38.008s22.176 19.725 35.722 25.716c13.546 5.99 28.178 9.082 42.972 9.082h1.229l2.584 0.042c14.3 0.002 28.445-3.001 41.528-8.815s24.819-14.314 34.455-24.954c9.637-10.641 16.965-23.189 21.513-36.842 4.548-13.655 6.22-28.113 4.906-42.454l0.042 0.383h0.085zM459.268 227.586c0-43.435 20.335-74.581 53.849-74.581 33.512 0 52.536 32.554 52.536 75.945 0 40.704-18.853 74.583-53.849 74.583-33.641 0.085-52.536-32.512-52.536-75.863v-0.085zM685.501 296.789h-59.229v42.071h169.724v-42.071h-60.585v-180.393h-49.824l-0.085 180.393zM953.518 211.371h-80.794v-52.907h91.512v-40.704h-142.692v221.099h135.998v-40.704h-86.174v-46.125h80.794v-40.704l1.356 0.045zM997.968 338.859h49.824v-180.395h87.53v-42.069h-137.354v222.464zM662.624 481.198l-72.746-39.466 13.559 81.366-58.001 58.579 80.794 12.203 36.352 73.131 36.35-73.258 80.796-12.203-57.916-58.326 13.557-81.366-72.744 39.339zM914.461 471.77l-55.205-29.825 10.763 62.379-44.486 43.391 60.585 8.107 28.258 56.959 26.947-56.959 61.941-8.107-44.444-43.433 9.405-62.379-53.764 29.867zM1074.699 460.889l-36.352-18.986 6.778 40.704-29.614 28.458 40.417 6.827 18.855 36.608 17.539-36.608 40.419-6.827-28.26-28.458 6.778-40.704-36.561 18.986zM412.104 471.77l53.849-29.825-10.761 62.379 44.444 43.433-60.585 8.107-26.902 56.917-28.26-56.959-60.627-8.107 44.444-43.433-10.763-62.379 55.162 29.867zM250.524 460.889l36.35-18.986-6.778 40.704 29.616 28.458-40.419 6.827-18.81 36.608-17.542-36.608-40.418-6.827 29.615-28.458-6.779-40.704 35.166 18.986z" />
<glyph unicode="&#xe922;" glyph-name="gridicons_create" d="M896 362.667v-213.333c0-22.63-8.991-44.336-24.992-60.341-16.005-16.002-37.711-24.992-60.341-24.992h-597.333c-22.632 0-44.337 8.991-60.34 24.992-16.003 16.005-24.993 37.711-24.993 60.341v597.333c0 22.632 8.99 44.337 24.993 60.34s37.708 24.993 60.34 24.993h213.333v-85.333h-213.333v-597.333h597.333v213.333h85.333zM896 661.333h-170.667v170.667h-85.333v-170.667h-170.667v-85.333h170.667v-170.667h85.333v170.667h170.667v85.333z" />
<glyph unicode="&#xe923;" glyph-name="instagram-fill" d="M300.916 956.928c54.598 2.513 72.006 3.072 211.084 3.072s156.486-0.605 211.037-3.072c54.551-2.467 91.788-11.171 124.369-23.785 34.118-12.893 65.071-33.047 90.671-59.113 26.065-25.553 46.173-56.46 59.020-90.624 12.66-32.582 21.318-69.818 23.831-124.276 2.513-54.691 3.072-72.099 3.072-211.13 0-139.078-0.605-156.486-3.072-211.084-2.467-54.458-11.171-91.695-23.831-124.276-12.847-34.169-32.987-65.126-59.020-90.717-25.6-26.065-56.553-46.173-90.671-59.020-32.582-12.66-69.818-21.318-124.276-23.831-54.644-2.513-72.052-3.072-211.13-3.072s-156.486 0.605-211.084 3.072c-54.458 2.467-91.695 11.171-124.276 23.831-34.168 12.847-65.125 32.987-90.717 59.020-26.048 25.567-46.205 56.511-59.066 90.671-12.614 32.582-21.271 69.818-23.785 124.276-2.513 54.691-3.072 72.099-3.072 211.13 0 139.078 0.605 156.486 3.072 211.037s11.171 91.788 23.785 124.369c12.88 34.161 33.053 65.103 59.113 90.671 25.555 26.042 56.482 46.199 90.624 59.066 32.582 12.614 69.818 21.271 124.276 23.785h0.047zM718.895 864.768c-53.993 2.467-70.191 2.979-206.895 2.979s-152.902-0.512-206.895-2.979c-49.943-2.281-77.033-10.612-95.092-17.641-23.878-9.309-40.96-20.34-58.88-38.26-16.987-16.526-30.060-36.644-38.26-58.88-7.028-18.060-15.36-45.149-17.641-95.092-2.467-53.993-2.979-70.191-2.979-206.895s0.512-152.902 2.979-206.895c2.281-49.943 10.612-77.033 17.641-95.092 8.192-22.202 21.271-42.356 38.26-58.88 16.524-16.989 36.678-30.068 58.88-38.26 18.060-7.028 45.149-15.36 95.092-17.641 53.993-2.467 70.144-2.979 206.895-2.979s152.902 0.512 206.895 2.979c49.943 2.281 77.033 10.612 95.092 17.641 23.878 9.309 40.96 20.34 58.88 38.26 16.989 16.524 30.068 36.678 38.26 58.88 7.028 18.060 15.36 45.149 17.641 95.092 2.467 53.993 2.979 70.191 2.979 206.895s-0.512 152.902-2.979 206.895c-2.281 49.943-10.612 77.033-17.641 95.092-9.309 23.878-20.34 40.96-38.26 58.88-16.528 16.986-36.645 30.059-58.88 38.26-18.060 7.028-45.149 15.36-95.092 17.641zM446.604 290.164c36.524-15.202 77.191-17.254 115.056-5.804 37.869 11.45 70.586 35.691 92.565 68.585 21.979 32.889 31.86 72.392 27.946 111.76-3.91 39.366-21.364 76.154-49.385 104.080-17.864 17.851-39.461 31.52-63.241 40.022-23.775 8.502-49.147 11.627-74.277 9.148s-49.401-10.499-71.061-23.483c-21.66-12.984-40.172-30.609-54.202-51.606s-23.231-44.844-26.94-69.825c-3.709-24.976-1.832-50.469 5.493-74.636s19.919-46.41 36.872-65.126c16.954-18.716 37.846-33.443 61.174-43.115zM325.911 634.089c24.437 24.438 53.449 43.823 85.378 57.048s66.15 20.033 100.71 20.033c34.56 0 68.78-6.807 100.71-20.033s60.942-32.61 85.378-57.048c24.436-24.437 43.823-53.449 57.046-85.378 13.228-31.929 20.033-66.15 20.033-100.71s-6.805-68.78-20.033-100.71c-13.224-31.93-32.61-60.942-57.046-85.378-49.352-49.352-116.294-77.079-186.089-77.079-69.797 0-136.735 27.727-186.089 77.079s-77.081 116.294-77.081 186.089c0 69.797 27.727 136.735 77.081 186.089zM833.536 671.977c6.056 5.713 10.906 12.582 14.257 20.202s5.143 15.835 5.264 24.159c0.121 8.324-1.429 16.588-4.557 24.302-3.133 7.714-7.778 14.722-13.661 20.609-5.888 5.887-12.898 10.532-20.61 13.662s-15.979 4.68-24.301 4.559c-8.327-0.121-16.542-1.912-24.162-5.265s-14.49-8.201-20.201-14.257c-11.11-11.777-17.194-27.421-16.957-43.61s6.772-31.649 18.223-43.097c11.446-11.449 26.908-17.985 43.096-18.221s31.832 5.847 43.608 16.957z" />
<glyph unicode="&#xe924;" glyph-name="like" d="M990.594 420.973c21.504 27.585 33.406 61.383 33.406 96.547 0 55.791-32.13 108.601-83.842 138.049-13.312 7.58-28.467 11.57-43.898 11.555h-306.948l7.68 152.711c1.792 36.904-11.648 71.945-37.76 98.66-12.815 13.168-28.275 23.644-45.425 30.783s-35.627 10.786-54.287 10.719c-66.56 0-125.44-43.49-143.104-105.742l-109.952-386.439h-165.504c-22.656 0-40.96-17.769-40.96-39.762v-452.294c0-21.992 18.304-39.763 40.96-39.763h769.662c11.776 0 23.3 2.237 33.918 6.711 60.928 25.222 100.226 82.999 100.226 147.117 0 15.659-2.3 31.067-6.908 45.978 21.504 27.585 33.406 61.382 33.406 96.546 0 15.656-2.308 31.064-6.908 45.975 21.496 27.585 33.406 61.382 33.406 96.547-0.26 15.656-2.56 31.189-7.168 46.099zM92.16 25.466v352.888h103.68v-352.888h-103.68zM906.752 464.091l-28.034-23.609 17.794-31.561c5.86-10.397 8.901-22.070 8.83-33.922 0-20.503-9.216-40.011-25.088-53.431l-28.034-23.609 17.794-31.561c5.86-10.397 8.901-22.070 8.83-33.922 0-20.502-9.216-40.011-25.088-53.431l-28.026-23.61 17.786-31.563c5.868-10.39 8.909-22.063 8.838-33.918 0-27.837-16.896-52.933-43.008-64.362h-531.586v356.738l127.36 447.945c3.285 11.481 10.335 21.61 20.081 28.853s21.661 11.203 33.935 11.282c9.727 0 19.328-2.734 27.008-8.325 12.672-9.196 19.456-23.112 18.688-37.898l-12.288-246.526h402.432c22.78-13.544 36.864-36.407 36.864-60.14 0-20.502-9.216-39.886-25.088-53.43z" />
<glyph unicode="&#xe925;" glyph-name="line-md_edit" d="M715.337 879.689c-5.482-1.313-10.311-3.274-14.742-5.844l0.26 0.139c-3.901-2.292-105.521-102.741-225.768-223.183-195.779-196.072-218.99-219.916-221.867-227.572-2.974-7.948-3.17-14.921-3.17-104.107 0-93.574 0.049-95.72 3.56-103.326 5.266-11.362 13.263-19.602 24.283-25.015l9.704-4.779h95.573c89.137 0 96.11 0.244 104.107 3.218 7.607 2.877 31.5 26.136 228.303 222.696 242.054 241.81 228.693 227.23 228.693 249.125 0 21.455 2.292 18.676-98.255 119.369-96.207 96.354-98.158 98.011-115.566 99.913-1.484 0.125-3.212 0.197-4.956 0.197-3.588 0-7.106-0.302-10.529-0.882l0.369 0.052zM776.533 711.656l50.322-50.322-29.403-29.452-29.452-29.403-101.522 101.522 28.965 29.013c15.945 15.945 29.403 29.013 29.891 29.013s23.503-22.674 51.2-50.371zM648.533 583.656l50.322-50.322-249.125-249.173h-101.571v101.522l124.148 124.197c41.134 41.384 81.868 81.841 122.862 122.033l2.163 2.114c0.488 0 23.503-22.674 51.2-50.371zM118.004 111.689c-22.004-4.641-38.284-23.895-38.284-46.952 0-0.259 0.002-0.518 0.006-0.776v0.039c0-19.554 9.801-35.206 27.502-43.886l9.704-4.779h790.187l7.753 3.608c18.822 8.728 29.403 24.966 29.403 45.056s-10.581 36.328-29.403 45.056l-7.753 3.56-390.827 0.293c-214.991 0.098-394.191-0.439-398.287-1.219z" />
<glyph unicode="&#xe926;" glyph-name="linkedin-fill" d="M0 874.449v-852.852c-0.006-11.241 2.202-22.37 6.499-32.754s10.597-19.819 18.542-27.769c7.945-7.95 17.378-14.257 27.76-18.558s21.511-6.516 32.749-6.516h852.852c11.245-0.005 22.384 2.206 32.773 6.507 10.394 4.301 19.833 10.612 27.783 18.567s14.257 17.399 18.553 27.792c4.296 10.394 6.502 21.532 6.488 32.777v852.806c0.005 11.244-2.206 22.379-6.507 32.768-4.305 10.388-10.612 19.826-18.572 27.772-7.955 7.947-17.399 14.246-27.792 18.538-10.389 4.292-21.527 6.491-32.773 6.473h-852.806c-22.69 0-44.45-9.013-60.493-25.057s-25.057-37.804-25.057-60.493zM405.318 569.577h138.659v-69.632c20.015 40.029 71.215 76.055 148.154 76.055 147.503 0 182.458-79.732 182.458-226.025v-270.988h-149.271v237.661c0 83.316-20.015 130.327-70.842 130.327-70.516 0-99.84-50.688-99.84-130.327v-237.661h-149.318v490.589zM149.318 85.364v490.636h149.318v-490.636h-149.318zM320 736.023c0.282-12.785-1.994-25.497-6.691-37.391s-11.724-22.729-20.667-31.87c-8.942-9.142-19.62-16.405-31.407-21.363s-24.447-7.513-37.235-7.513c-12.788 0-25.447 2.554-37.234 7.513s-22.466 12.222-31.408 21.363c-8.942 9.141-15.969 19.977-20.667 31.87s-6.973 24.606-6.691 37.391c0.552 25.095 10.91 48.976 28.853 66.528s42.046 27.381 67.147 27.381c25.101 0 49.204-9.829 67.147-27.381s28.3-41.433 28.853-66.528z" />
<glyph unicode="&#xe927;" glyph-name="lock-alt" horiz-adv-x="768" d="M655.987 665.602v-108.802c59.84 0 108.8-48.96 108.8-108.8v-380.8c0-59.84-48.96-108.797-108.8-108.797h-544c-59.84 0-108.8 48.957-108.8 108.797v380.8c0 59.84 48.96 108.8 108.8 108.8v108.802c0 150.144 121.856 272 272 272s272-121.856 272-272zM275.188 665.602v-108.802h217.6v108.802c0 59.84-48.96 108.8-108.8 108.8s-108.8-48.96-108.8-108.8zM427.507 108v118.051c38.080 16.861 65.28 54.941 65.28 99.549 0 59.84-48.96 108.8-108.8 108.8s-108.8-48.96-108.8-108.8c0-44.608 27.2-82.688 65.28-99.549v-118.051h87.040z" />
<glyph unicode="&#xe928;" glyph-name="make-comment" horiz-adv-x="1117" d="M558.545 960c-308.509 0-558.545-212.8-558.545-475.428 0-113.372 46.691-217.143 124.364-298.743-27.273-115.2-118.473-217.824-119.564-218.969-4.8-5.26-6.109-13.033-3.273-19.884 2.836-6.861 8.945-10.975 15.927-10.975 144.655 0 253.091 72.685 306.763 117.485 71.346-28.118 150.546-44.344 234.328-44.344 308.509 0 558.545 212.801 558.545 475.43s-250.037 475.428-558.545 475.428zM279.273 411.428c-38.618 0-69.818 32.686-69.818 73.143s31.2 73.142 69.818 73.142c38.618 0 69.818-32.685 69.818-73.142s-31.2-73.143-69.818-73.143zM558.545 411.428c-38.618 0-69.818 32.686-69.818 73.143s31.2 73.142 69.818 73.142c38.618 0 69.818-32.685 69.818-73.142s-31.2-73.143-69.818-73.143zM837.818 411.428c-38.618 0-69.818 32.686-69.818 73.143s31.2 73.142 69.818 73.142c38.618 0 69.818-32.685 69.818-73.142s-31.2-73.143-69.818-73.143z" />
<glyph unicode="&#xe929;" glyph-name="map" horiz-adv-x="717" d="M51.2 38.4h614.4c28.16 0 51.2-23.040 51.2-51.2s-23.040-51.2-51.2-51.2h-614.4c-28.16 0-51.2 23.040-51.2 51.2s23.040 51.2 51.2 51.2zM358.4 704c-56.32 0-102.4-46.080-102.4-102.4s46.080-102.4 102.4-102.4c56.32 0 102.4 46.080 102.4 102.4s-46.080 102.4-102.4 102.4zM358.4 960c167.424 0 358.4-125.952 358.4-366.080 0-152.576-109.056-313.344-327.168-480.768-18.432-14.336-44.032-14.336-62.464 0-218.112 167.936-327.168 328.192-327.168 480.768 0 240.128 190.976 366.080 358.4 366.080z" />
<glyph unicode="&#xe92a;" glyph-name="medal" horiz-adv-x="731" d="M609.5 935.616h-195.048v-197.924c69.794-7.672 136.705-32.078 195.048-71.144v269.068zM316.929 935.616h-195.048v-269.068c58.343 39.066 125.253 63.472 195.048 71.144v197.924zM365.69-39.621c90.527 0 177.347 35.964 241.36 99.972 64.012 64.015 99.974 150.835 99.974 241.361 0 90.527-35.961 177.347-99.974 241.359s-150.832 99.975-241.36 99.975c-90.527 0-177.347-35.962-241.359-99.975s-99.974-150.832-99.974-241.359c0-90.526 35.962-177.347 99.974-241.361 64.012-64.007 150.832-99.972 241.359-99.972zM305.957 375.781l59.733 120.978 59.734-120.978 133.51-19.359-96.597-94.208 22.821-132.971-119.467 62.757-119.417-62.757 22.821 132.971-96.598 94.208 133.462 19.359z" />
<glyph unicode="&#xe92b;" glyph-name="menu" horiz-adv-x="1365" d="M0 891.733c0 18.105 7.192 35.469 19.995 48.272s30.166 19.995 48.272 19.995h1228.8c18.104 0 35.471-7.192 48.271-19.995s19.995-30.166 19.995-48.272c0-18.106-7.195-35.469-19.995-48.272s-30.167-19.995-48.271-19.995h-1228.8c-18.105 0-35.469 7.193-48.272 19.995s-19.995 30.166-19.995 48.272zM0 479.95c0 18.105 7.192 35.469 19.995 48.271s30.166 19.995 48.272 19.995h1228.8c18.104 0 35.471-7.193 48.271-19.995s19.995-30.166 19.995-48.271c0-18.106-7.195-35.469-19.995-48.272s-30.167-19.995-48.271-19.995h-1228.8c-18.105 0-35.469 7.192-48.272 19.995s-19.995 30.166-19.995 48.272zM68.267 136.431c-18.105 0-35.469-7.195-48.272-19.995-12.802-12.807-19.995-30.167-19.995-48.271s7.192-35.471 19.995-48.271c12.803-12.807 30.166-19.995 48.272-19.995h1228.8c18.104 0 35.471 7.188 48.271 19.995 12.8 12.8 19.995 30.167 19.995 48.271s-7.195 35.465-19.995 48.271c-12.8 12.8-30.167 19.995-48.271 19.995h-1228.8z" />
<glyph unicode="&#xe92c;" glyph-name="menu-horizontal" d="M256 384c35.346 0 64 28.654 64 64s-28.654 64-64 64c-35.346 0-64-28.654-64-64s28.654-64 64-64zM512 384c35.346 0 64 28.654 64 64s-28.654 64-64 64c-35.346 0-64-28.654-64-64s28.654-64 64-64zM768 384c35.347 0 64 28.654 64 64s-28.653 64-64 64c-35.347 0-64-28.654-64-64s28.653-64 64-64z" />
<glyph unicode="&#xe92d;" glyph-name="microphone" d="M512 277.344c94.112 0 170.656 76.544 170.656 170.656v256c0 94.592-76.16 171.552-169.76 171.552-3.008-0.032-5.984-0.384-8.928-1.056-43.808-2.112-85.12-20.992-115.392-52.736s-47.2-73.888-47.232-117.76v-256c0-94.112 76.544-170.656 170.656-170.656zM469.344 109.6v-88.288h85.344v88.288c168.064 21.12 298.656 164.608 298.656 338.4h-85.312c0-141.184-114.816-256-256-256s-256 114.816-256 256h-85.344c0-173.728 130.592-317.28 298.656-338.4z" />
<glyph unicode="&#xe92e;" glyph-name="notification" horiz-adv-x="1092" d="M1046.624 64.007c-32.208 28.706-60.396 61.617-83.825 97.847-25.573 50.005-40.899 104.619-45.083 160.631v164.972c-0.137 20.039-1.925 40.032-5.345 59.778-26.283 5.254-51.541 14.727-74.8 28.052 8.861-28.548 13.367-58.271 13.353-88.164v-164.972c4.096-68.328 22.89-134.963 55.105-195.359 23.054-36.536 50.415-70.171 81.483-100.188h-855.25c31.071 30.017 58.428 63.652 81.484 100.188 32.213 60.396 51.009 127.031 55.102 195.359v165.306c-0.176 38.649 7.273 76.953 21.922 112.719s36.207 68.291 63.443 95.712c27.236 27.422 59.613 49.203 95.278 64.094s73.917 22.602 112.566 22.689c56.564-0.046 111.857-16.773 158.961-48.089-5.195 19.069-8.11 38.686-8.684 58.441v21.039c-34.869 17.153-72.329 28.436-110.871 33.395v42.078c0 11.824-4.697 23.163-13.058 31.524s-19.7 13.058-31.525 13.058c-11.824 0-23.164-4.697-31.524-13.058s-13.058-19.701-13.058-31.524v-43.748c-86.303-12.174-165.287-55.16-222.371-121.022s-88.414-150.152-88.204-237.309v-164.972c-4.183-56.012-19.51-110.625-45.083-160.631-23.013-36.147-50.754-69.052-82.486-97.847-3.563-3.133-6.417-6.984-8.375-11.298-1.958-4.321-2.973-9.004-2.979-13.749v-45.418c0-8.854 3.518-17.353 9.781-23.613s14.757-9.783 23.614-9.783h928.385c8.854 0 17.353 3.523 23.613 9.783 6.267 6.26 9.783 14.759 9.783 23.613v45.418c-0.007 4.745-1.024 9.428-2.976 13.749-1.959 4.314-4.82 8.165-8.376 11.298z" />
<glyph unicode="&#xe92f;" glyph-name="ok" d="M856.951 875.385l-521.765-521.763-169.22 169.22-165.967-165.966 336.271-336.269 687.729 687.725-167.049 167.052z" />
<glyph unicode="&#xe930;" glyph-name="phone" d="M967.68 255.716c-69.973 0-137.671 11.377-200.817 31.857-9.893 3.354-20.53 3.851-30.693 1.436s-19.439-7.644-26.766-15.089l-89.315-112.071c-160.996 76.8-311.752 221.867-391.965 388.551l110.933 94.436c15.36 15.928 19.912 38.115 13.653 58.027-21.048 63.147-31.857 130.844-31.857 200.817 0 30.72-25.6 56.32-56.32 56.32h-196.836c-30.72 0-67.698-13.653-67.698-56.32 0-528.497 439.751-967.68 967.68-967.68 40.388 0 56.32 35.84 56.32 67.132v196.264c0 30.72-25.6 56.32-56.32 56.32z" />
<glyph unicode="&#xe931;" glyph-name="plus" d="M1024 576h-384v384h-256v-384h-384v-256h384v-384h256v384h384z" />
<glyph unicode="&#xe932;" glyph-name="profile" horiz-adv-x="975" d="M487.619 915.476c-66.494 0-118.442-25.75-155.844-77.25s-56.104-117.333-56.104-197.499c-0.462-99.6 30.014-178.551 91.429-236.851 7.85-7.778 10.62-17.735 8.311-29.881l-15.931-34.982c-5.080-11.659-12.583-20.768-22.511-27.331-9.928-6.558-30.822-15.911-62.684-28.058-1.385-0.483-30.592-10.445-87.619-29.876-57.027-19.436-87.388-30.125-91.082-32.066-38.788-17.008-64.185-34.743-76.191-53.204-12.929-30.608-19.394-108.1-19.394-232.477h975.238c0 124.377-6.466 201.869-19.393 232.477-12.005 18.461-37.405 36.196-76.19 53.204-3.696 1.941-34.055 12.629-91.082 32.066-57.027 19.432-86.235 29.394-87.62 29.876-31.861 12.147-52.756 21.499-62.683 28.058-9.928 6.563-17.432 15.672-22.513 27.331l-15.931 34.982c-2.306 12.147 0.463 22.104 8.314 29.881 61.416 58.3 91.892 137.252 91.429 236.851 0 80.166-18.7 145.999-56.105 197.499-37.4 51.5-89.351 77.25-155.843 77.25z" />
<glyph unicode="&#xe933;" glyph-name="report" d="M320 384h256v-64h-256v64zM320 544h384v-64h-384v64zM320 224h160v-64h-160v64zM800 800h-96v32c0 16.974-6.746 33.252-18.746 45.255s-28.282 18.745-45.254 18.745h-256c-16.974 0-33.252-6.743-45.255-18.745s-18.745-28.281-18.745-45.255v-32h-96c-16.974 0-33.252-6.743-45.255-18.745s-18.745-28.281-18.745-45.255v-672c0-16.973 6.743-33.254 18.745-45.254s28.281-18.746 45.255-18.746h576c16.973 0 33.254 6.746 45.254 18.746s18.746 28.282 18.746 45.254v672c0 16.974-6.746 33.252-18.746 45.255s-28.282 18.745-45.254 18.745zM384 832h256v-128h-256v128zM800 64h-576v672h96v-96h384v96h96v-672z" />
<glyph unicode="&#xe934;" glyph-name="right-short" horiz-adv-x="1109" d="M0 448.003c0 16.974 6.743 33.253 18.745 45.255s28.281 18.745 45.255 18.745h741.504l-274.816 274.688c-12.017 12.017-18.769 28.317-18.769 45.312s6.752 33.295 18.769 45.312c12.017 12.017 28.317 18.769 45.312 18.769s33.295-6.751 45.312-18.769l384-384c5.956-5.945 10.692-13.007 13.918-20.783s4.881-16.111 4.881-24.529c0-8.418-1.655-16.753-4.881-24.529s-7.962-14.838-13.918-20.783l-384-384.003c-12.017-12.015-28.317-18.765-45.312-18.765s-33.295 6.75-45.312 18.765c-12.017 12.023-18.769 28.322-18.769 45.312 0 16.998 6.752 33.297 18.769 45.315l274.816 274.688h-741.504c-16.974 0-33.253 6.743-45.255 18.745s-18.745 28.281-18.745 45.255z" />
<glyph unicode="&#xe935;" glyph-name="rocket" d="M910.21 960c-168.964 0-395.504-115.87-547.686-315.077h-126.188c-91.136 0-143.36-68.057-179.357-139.973l-48.286-96.335h227.643l236.308-236.308v-227.564l96.335 48.207c71.916 35.919 139.973 88.222 139.973 179.358v126.188c199.211 152.182 315.081 378.801 315.081 547.682v113.822h-113.822zM708.951 723.692c20.891 0 40.926-8.299 55.699-23.071s23.075-34.807 23.075-55.699c0-20.891-8.303-40.926-23.075-55.699s-34.807-23.071-55.699-23.071c-20.89 0-40.926 8.299-55.698 23.071s-23.072 34.807-23.072 55.699c0 20.891 8.299 40.926 23.072 55.699s34.807 23.071 55.698 23.071zM196.951 251.077l-39.385-39.385c-56.871-56.871-78.769-196.923-78.769-196.923s133.75 15.596 196.923 78.769l39.385 39.385-118.154 118.154z" />
<glyph unicode="&#xe936;" glyph-name="run" horiz-adv-x="1088" d="M799.599 925.287c-71.257-13.319-124.47-75.031-124.47-149.171 0-19.073 3.522-37.324 9.951-54.138l-0.349 1.040c22.021-57.212 76.539-97.072 140.366-97.072 0.378 0 0.755 0.001 1.132 0.004h-0.058c65.31 0 121.144 40.339 142.85 103.151 5.891 16.968 6.083 18.312 6.083 46.485 0 25.42-0.512 30.734-4.226 42.644-15.429 49.89-54.055 88.348-102.952 103.248l-1.096 0.287c-14.855 4.29-52.248 6.275-67.231 3.522zM841.987 861.77c31.631-5.891 59.483-32.079 67.935-63.965 1.692-6.404 2.664-13.757 2.664-21.336 0-45.812-35.507-83.331-80.503-86.538l-0.278-0.016c-54.617-4.098-100.718 45.845-91.818 99.63 6.778 41.993 42.765 73.677 86.152 73.677 5.603 0 11.082-0.528 16.391-1.538l-0.544 0.086zM339.42 678.71c-54.233-18.889-100.782-35.921-103.408-37.841-7.735-5.36-12.764-14.151-12.87-24.123v-0.016c0-14.471 5.507-24.139 17.096-30.158 10.821-5.635 18.825-3.778 90.858 21.258 37.905 13.126 78.756 27.213 90.666 31.246l21.77 7.363 100.27-47.83c54.423-24.93 87.285-41.234 119.852-58.031l-19.71 9.241c-0.064-0.576-50.007-38.162-110.963-83.558-61.020-45.397-112.5-84.711-114.485-87.4-4.354-5.955-6.019-20.617-3.201-29.069 1.616-4.248 3.989-7.875 6.981-10.887l-0.002 0.002c2.753-2.561 57.434-39.122 121.528-81.253 73.826-48.598 116.021-77.348 115.253-78.692-0.704-1.089-34.064-45.781-74.146-99.246-40.018-53.465-73.826-100.27-75.042-103.92-0.804-2.67-1.266-5.738-1.266-8.915 0-11.093 5.642-20.868 14.213-26.613l0.116-0.073c8.516-5.25 27.213-5.058 34.832 0.256 5.763 4.034 172.751 224.679 178.002 235.244 1.554 3.76 2.457 8.125 2.457 12.702 0 7.002-2.113 13.511-5.736 18.924l0.078-0.123c-2.881 3.778-46.421 33.551-117.302 80.165-61.98 40.787-112.756 74.786-112.756 75.619 0 0.768 2.689 3.33 5.891 5.635 21.45 15.175 213.922 159.113 218.853 163.659 6.83 5.815 11.133 14.421 11.133 24.031 0 6.106-1.737 11.806-4.744 16.633l0.077-0.133c-5.378 9.156 8.324 2.113-171.343 88.104-86.312 41.299-107.826 50.903-115.189 51.416-8.004 0.64-20.682-3.33-107.762-33.615zM1006.158 628.703c-5.224-2.254-9.711-5.182-13.612-8.742l0.038 0.034c-72.097-67.871-123.513-115.637-124.409-115.637-0.576 0-11.525 5.699-24.203 12.614s-26.188 13.126-29.966 13.83c-9.22 1.665-21.258-3.073-28.365-11.141-6.659-7.555-8.068-12.678-6.979-24.395 1.473-14.983 6.019-18.953 48.086-41.875 34.128-18.569 38.61-20.553 46.998-20.553 0.472-0.032 1.023-0.050 1.578-0.050 5.552 0 10.679 1.821 14.816 4.899l-0.066-0.047c9.156 6.275 149.317 138.111 153.415 144.322 11.205 17.16 0.96 42.259-19.337 47.382-9.668 2.433-9.284 2.497-17.992-0.64zM360.934 294.021c-9.476-2.881-13.766-7.555-48.086-52.76l-35.216-46.357-114.741-64.286c-63.069-35.408-117.302-66.591-120.439-69.344-7.812-6.787-10.437-13.958-9.412-25.74 0.896-11.077 7.043-20.938 15.943-25.548 4.295-1.652 9.264-2.609 14.456-2.609 5.444 0 10.643 1.052 15.404 2.963l-0.278-0.099c24.971 12.678 237.293 132.797 241.327 136.511 5.443 4.994 75.299 96.236 78.948 103.087 2.881 5.443 2.625 21.45-0.448 27.405-5.322 10.73-16.201 17.976-28.773 17.976-3.092 0-6.082-0.438-8.911-1.256l0.226 0.056z" />
<glyph unicode="&#xe937;" glyph-name="search" d="M751.482 297.978c61.971 84.564 89.728 189.409 77.715 293.558s-62.906 199.924-142.496 268.161c-79.594 68.237-182.018 103.906-286.78 99.869s-204.138-47.481-278.244-121.64c-74.107-74.159-117.48-173.566-121.441-278.331s31.78-207.164 100.074-286.705c68.294-79.546 164.105-130.374 268.263-142.31s208.983 15.898 293.501 77.926h-0.064c1.92-2.56 3.968-4.992 6.272-7.36l246.4-246.4c12-12.006 28.282-18.758 45.261-18.765 16.973-0.006 33.261 6.733 45.267 18.733 12.013 12 18.758 28.282 18.765 45.254 0.006 16.979-6.733 33.267-18.733 45.274l-246.4 246.4c-2.285 2.317-4.749 4.454-7.36 6.4v-0.064zM767.994 543.994c0-46.225-9.101-91.998-26.79-134.705s-43.622-81.511-76.307-114.198c-32.685-32.685-71.49-58.611-114.196-76.301s-88.479-26.797-134.705-26.797c-46.225 0-91.998 9.107-134.705 26.797s-81.51 43.616-114.197 76.301c-32.686 32.687-58.614 71.491-76.304 114.198s-26.794 88.479-26.794 134.705c0 93.356 37.085 182.889 103.098 248.902s155.546 103.098 248.902 103.098c93.356 0 182.889-37.085 248.901-103.098 66.016-66.013 103.098-155.546 103.098-248.902z" />
<glyph unicode="&#xe938;" glyph-name="send-alt-filled" d="M961.652 897.667c-5.182 5.158-11.73 8.729-18.872 10.294s-14.584 1.057-21.448-1.462l-844.8-307.199c-7.286-2.764-13.558-7.679-17.985-14.091s-6.797-14.021-6.797-21.813c0-7.792 2.371-15.4 6.797-21.813 4.426-6.412 10.699-11.327 17.985-14.090l329.856-131.712 243.456 244.224 54.144-54.144-244.608-244.608 132.096-329.856c2.846-7.145 7.771-13.271 14.138-17.584s13.882-6.616 21.574-6.608c7.76 0.159 15.289 2.665 21.596 7.191 6.307 4.524 11.094 10.853 13.732 18.153l307.2 844.8c2.616 6.793 3.247 14.191 1.82 21.33-1.428 7.139-4.856 13.725-9.884 18.99z" />
<glyph unicode="&#xe939;" glyph-name="solid-view-grid" d="M146.286 960c-38.797 0-76.006-15.412-103.44-42.846s-42.846-64.642-42.846-103.44v-146.286c0-38.797 15.412-76.006 42.846-103.439s64.642-42.846 103.44-42.846h146.286c38.797 0 76.006 15.412 103.439 42.846s42.846 64.642 42.846 103.439v146.286c0 38.797-15.412 76.006-42.846 103.44s-64.642 42.846-103.439 42.846h-146.286zM146.286 374.857c-38.797 0-76.006-15.412-103.44-42.846s-42.846-64.642-42.846-103.439v-146.286c0-38.795 15.412-76.003 42.846-103.439s64.642-42.847 103.44-42.847h146.286c38.797 0 76.006 15.411 103.439 42.847s42.846 64.644 42.846 103.439v146.286c0 38.797-15.412 76.006-42.846 103.439s-64.642 42.846-103.439 42.846h-146.286zM585.143 813.714c0 38.797 15.412 76.006 42.846 103.44s64.642 42.846 103.439 42.846h146.286c38.795 0 76.003-15.412 103.439-42.846s42.847-64.642 42.847-103.44v-146.286c0-38.797-15.411-76.006-42.847-103.439s-64.644-42.846-103.439-42.846h-146.286c-38.797 0-76.006 15.412-103.439 42.846s-42.846 64.642-42.846 103.439v146.286zM585.143 228.571c0 38.797 15.412 76.006 42.846 103.439s64.642 42.846 103.439 42.846h146.286c38.795 0 76.003-15.412 103.439-42.846s42.847-64.642 42.847-103.439v-146.286c0-38.795-15.411-76.003-42.847-103.439s-64.644-42.847-103.439-42.847h-146.286c-38.797 0-76.006 15.411-103.439 42.847s-42.846 64.644-42.846 103.439v146.286z" />
<glyph unicode="&#xe93a;" glyph-name="solid-view-list" d="M0 886.857c0 19.399 7.706 38.003 21.423 51.72s32.321 21.423 51.72 21.423h877.714c19.397 0 38.005-7.706 51.719-21.423s21.424-32.321 21.424-51.72c0-19.399-7.709-38.003-21.424-51.72s-32.322-21.423-51.719-21.423h-877.714c-19.399 0-38.003 7.706-51.72 21.423s-21.423 32.321-21.423 51.72zM0 594.286c0 19.399 7.706 38.003 21.423 51.72s32.321 21.423 51.72 21.423h877.714c19.397 0 38.005-7.706 51.719-21.423s21.424-32.321 21.424-51.72c0-19.399-7.709-38.003-21.424-51.72s-32.322-21.423-51.719-21.423h-877.714c-19.399 0-38.003 7.706-51.72 21.423s-21.423 32.321-21.423 51.72zM0 301.714c0 19.399 7.706 38.003 21.423 51.72s32.321 21.423 51.72 21.423h877.714c19.397 0 38.005-7.706 51.719-21.423s21.424-32.321 21.424-51.72c0-19.399-7.709-38.003-21.424-51.72s-32.322-21.423-51.719-21.423h-877.714c-19.399 0-38.003 7.706-51.72 21.423s-21.423 32.321-21.423 51.72zM0 9.143c0 19.397 7.706 38.005 21.423 51.719s32.321 21.424 51.72 21.424h877.714c19.397 0 38.005-7.709 51.719-21.424s21.424-32.322 21.424-51.719c0-19.397-7.709-38.005-21.424-51.719s-32.322-21.424-51.719-21.424h-877.714c-19.399 0-38.003 7.709-51.72 21.424s-21.423 32.322-21.423 51.719z" />
<glyph unicode="&#xe93b;" glyph-name="star-filled" horiz-adv-x="1084" d="M1049.19 599.421l-325.030 46.718-145.3 291.325c-3.968 7.976-10.497 14.433-18.562 18.358-20.226 9.875-44.805 1.646-54.919-18.358l-145.298-291.325-325.032-46.718c-8.961-1.266-17.154-5.444-23.427-11.775-7.583-7.709-11.762-18.080-11.618-28.834s4.599-21.012 12.386-28.519l235.166-226.755-55.559-320.193c-1.303-7.445-0.469-15.107 2.406-22.112 2.875-6.999 7.677-13.071 13.861-17.51 6.184-4.445 13.502-7.084 21.126-7.62s15.247 1.048 22.006 4.578l290.724 151.166 290.723-151.166c7.939-4.18 17.155-5.572 25.992-4.054 22.269 3.801 37.25 24.69 33.406 46.718l-55.555 320.193 235.165 226.755c6.403 6.204 10.626 14.306 11.902 23.169 3.458 22.156-12.162 42.667-34.563 45.959v0z" />
<glyph unicode="&#xe93c;" glyph-name="team" horiz-adv-x="1195" d="M597.329 959.833c-22.39 0-44.56-4.41-65.246-12.978s-39.48-21.127-55.313-36.959c-15.832-15.832-28.39-34.627-36.959-55.313s-12.978-42.856-12.978-65.246c0-22.39 4.41-44.561 12.978-65.246s21.127-39.481 36.959-55.313c15.833-15.832 34.627-28.391 55.313-36.959s42.856-12.978 65.246-12.978c45.219 0 88.585 17.963 120.559 49.937s49.937 75.34 49.937 120.559c0 45.218-17.963 88.584-49.937 120.559s-75.34 49.937-120.559 49.937zM981.333 874.667c-33.946 0-66.509-13.486-90.513-37.49s-37.487-56.562-37.487-90.51c0-33.947 13.483-66.505 37.487-90.51s56.567-37.49 90.513-37.49c33.946 0 66.509 13.486 90.513 37.49s37.487 56.562 37.487 90.51c0 33.947-13.483 66.505-37.487 90.51s-56.567 37.49-90.513 37.49zM213.333 874.667c-33.947 0-66.505-13.486-90.51-37.49s-37.49-56.562-37.49-90.51c0-33.947 13.486-66.505 37.49-90.51s56.562-37.49 90.51-37.49c33.947 0 66.505 13.486 90.51 37.49s37.49 56.562 37.49 90.51c0 33.947-13.486 66.505-37.49 90.51s-56.562 37.49-90.51 37.49zM341.333 448.597c0.158 22.528 9.218 44.080 25.204 59.954s37.6 24.783 60.129 24.782h341.333c22.632 0 44.337-8.991 60.34-24.993s24.993-37.708 24.993-60.34v-256c-0.006-26.856-4.209-53.547-12.459-79.104-18.895-57.916-57.818-107.196-109.78-138.999s-113.558-44.032-173.728-34.509c-60.171 9.532-114.974 40.201-154.569 86.494-39.595 46.302-61.387 105.198-61.464 166.118v256.597zM256 448c0 31.147 8.277 60.245 22.869 85.333h-193.536c-22.632 0-44.337-8.991-60.34-24.993s-24.994-37.708-24.994-60.34v-213.333c-0.012-34.928 8.553-69.323 24.941-100.168s40.098-57.196 69.049-76.728c28.951-19.541 62.256-31.676 96.992-35.337s69.837 1.271 102.224 14.345c-24.561 48.077-37.315 101.318-37.205 155.307v255.915zM938.709 448v-256c0-55.893-13.397-108.629-37.205-155.221 32.384-13.073 67.482-18.005 102.221-14.345 34.731 3.661 68.036 15.795 96.99 35.337 28.954 19.533 52.659 45.884 69.052 76.728 16.384 30.845 24.951 65.24 24.943 100.168v213.333c0 22.632-8.994 44.337-24.994 60.34-16.009 16.003-37.709 24.993-60.339 24.993h-193.536c14.507-25.088 22.869-54.187 22.869-85.333z" />
<glyph unicode="&#xe93d;" glyph-name="tiktok" horiz-adv-x="910" d="M716.811 799.573c0 0 29.013-28.444 0 0-38.889 44.395-60.319 101.408-60.302 160.427h-175.789v-705.422c-1.356-38.172-17.472-74.331-44.956-100.858-27.483-26.533-64.189-41.358-102.386-41.364-80.782 0-147.911 65.991-147.911 147.911 0 97.849 94.436 171.236 191.716 141.084v179.769c-196.267 26.169-368.071-126.293-368.071-320.853 0-189.44 157.014-324.267 323.698-324.267 178.631 0 323.7 145.067 323.7 324.267v357.831c71.282-51.191 156.86-78.657 244.622-78.507v175.787c0 0-106.951-5.12-184.32 84.196z" />
<glyph unicode="&#xe93e;" glyph-name="train-ticket" horiz-adv-x="1725" d="M74.328-52.213c0.943 3.649 1.415 7.402 1.404 11.172l-0.056 2.414v-0.113c-0.144 16.594-6.326 32.569-17.392 44.937-11.066 12.366-26.257 20.281-42.734 22.261h-0.337v110.261c16.538 1.905 31.81 9.787 42.945 22.162 11.135 12.377 17.365 28.392 17.518 45.040-0.144 16.594-6.326 32.569-17.392 44.937-11.066 12.366-26.257 20.281-42.734 22.261h-0.337v110.261c16.538 1.905 31.81 9.787 42.945 22.162s17.365 28.392 17.518 45.040c-0.143 16.594-6.326 32.569-17.392 44.937-11.066 12.366-26.257 20.281-42.734 22.261h-0.337v110.261c16.538 1.905 31.81 9.787 42.945 22.162s17.365 28.392 17.518 45.039c-0.144 16.595-6.326 32.57-17.392 44.937s-26.257 20.282-42.734 22.263h-0.337v110.26c16.538 1.905 31.81 9.786 42.945 22.161s17.365 28.392 17.518 45.039c0 2.695-1.291 5.333-1.347 8.084h1562.501c-0.784-1.909-1.291-4.211-1.291-6.568l0.057-1.628v0.112-0.674c-0.005-8.746 1.711-17.407 5.055-25.488s8.249-15.424 14.433-21.608c6.182-6.184 13.525-11.088 21.606-14.432s16.742-5.061 25.49-5.055h0.674c2.695 0 4.042 1.347 6.737 1.347v-110.372c-1.727 0.919-3.659 1.382-5.616 1.348l-1.178-0.056c-9.674-0.386-19.165-2.76-27.88-6.974s-16.47-10.178-22.779-17.52c-6.311-7.342-11.040-15.905-13.897-25.155-2.854-9.25-3.775-18.989-2.703-28.611v0.337-0.674c-0.005-8.744 1.711-17.405 5.055-25.487s8.249-15.425 14.433-21.609c6.184-6.184 13.525-11.089 21.606-14.43 8.082-3.344 16.742-5.063 25.49-5.055h0.674c2.695 0 4.042 1.347 6.737 1.347v-110.261c-1.727 0.919-3.659 1.382-5.616 1.347l-1.178-0.057c-17.839 0-34.945-7.084-47.557-19.699-12.614-12.614-19.701-29.72-19.701-47.557 0-17.839 7.087-34.945 19.701-47.559 12.611-12.611 29.72-19.699 47.557-19.699 2.695 0 4.042 1.347 6.737 1.347v-110.261c-1.76 0.938-3.732 1.404-5.726 1.347l-1.067-0.054c-8.833 0-17.578-1.741-25.737-5.12-8.16-3.382-15.576-8.335-21.819-14.581-6.246-6.244-11.199-13.66-14.579-21.819-3.382-8.16-5.12-16.904-5.12-25.737 0-8.831 1.738-17.578 5.117-25.737 3.382-8.16 8.335-15.573 14.581-21.819 6.244-6.246 13.66-11.199 21.819-14.579 8.16-3.382 16.904-5.12 25.737-5.12 2.695 0 4.042 1.347 6.737 1.347v-110.261c-1.727 0.919-3.659 1.382-5.613 1.347l-1.18-0.057h-0.674c-8.744 0.008-17.405-1.711-25.487-5.055-8.082-3.341-15.425-8.246-21.609-14.43s-11.086-13.528-14.43-21.609c-3.344-8.082-5.063-16.742-5.055-25.487v-0.563l-0.057-2.188c-0.011-3.902 0.48-7.788 1.461-11.566l-0.057 0.28-1562.391 0.563zM1205.504 39.238v-13.474c0.178-5.225 2.379-10.178 6.139-13.811 3.762-3.633 8.785-5.664 14.015-5.664 5.228 0 10.253 2.032 14.013 5.664s5.963 8.585 6.141 13.811v13.7c-0.178 5.225-2.382 10.178-6.141 13.811-3.759 3.635-8.785 5.664-14.013 5.664-5.23 0-10.253-2.029-14.015-5.664-3.759-3.633-5.961-8.585-6.139-13.811v-0.226zM1471.72 306.804v-236.687c0.181-5.228 2.382-10.178 6.141-13.813 3.762-3.633 8.785-5.664 14.015-5.664 5.228 0 10.253 2.032 14.013 5.664 3.759 3.635 5.961 8.585 6.141 13.813v236.687c-0.181 5.228-2.382 10.178-6.141 13.813-3.759 3.633-8.785 5.664-14.013 5.664-5.23 0-10.253-2.032-14.015-5.664-3.759-3.635-5.961-8.585-6.141-13.813zM1384.030 831.269v-761.042c0.178-5.225 2.379-10.178 6.141-13.811 3.759-3.633 8.782-5.664 14.013-5.664 5.228 0 10.253 2.032 14.013 5.664 3.762 3.633 5.963 8.585 6.141 13.811v761.042c-0.178 5.226-2.379 10.178-6.141 13.812-3.759 3.634-8.785 5.665-14.013 5.665-5.23 0-10.253-2.031-14.013-5.665-3.762-3.634-5.963-8.586-6.141-13.812zM913.403 119.913l16.168-16.168c4.136-3.519 9.391-5.454 14.821-5.454 5.433 0 10.687 1.935 14.821 5.454l-0.054-0.057c1.738 2.002 3.050 4.336 3.862 6.858 0.814 2.525 1.105 5.187 0.857 7.826-0.248 2.641-1.027 5.201-2.291 7.532s-2.988 4.379-5.069 6.023l-119.689 119.692c-1.83 1.889-4.021 3.393-6.44 4.417-2.42 1.027-5.023 1.555-7.653 1.555-2.627 0-5.23-0.528-7.65-1.555-2.423-1.024-4.611-2.528-6.44-4.417-2.506-2.102-4.349-4.886-5.306-8.014s-0.986-6.47-0.084-9.615v0.113h-281.039c0.806 3.129 0.722 6.419-0.24 9.504-0.962 3.083-2.765 5.839-5.206 7.955-1.819 1.913-4.007 3.436-6.432 4.479-2.423 1.040-5.034 1.582-7.675 1.587-2.638 0.005-5.252-0.525-7.68-1.558s-4.624-2.547-6.451-4.452l-119.692-119.579c-1.889-1.83-3.39-4.018-4.417-6.438-1.024-2.423-1.555-5.023-1.555-7.653s0.531-5.233 1.555-7.653c1.027-2.42 2.528-4.611 4.419-6.438 4.134-3.522 9.388-5.454 14.821-5.454 5.43 0 10.685 1.932 14.821 5.454l16.112 16.112 498.807-0.057zM1205.221 133.387v-13.474c0.181-5.225 2.382-10.178 6.141-13.811 3.762-3.635 8.785-5.667 14.015-5.667 5.228 0 10.253 2.032 14.013 5.667 3.759 3.633 5.961 8.585 6.141 13.811v13.474c-0.181 5.225-2.382 10.178-6.141 13.811-3.759 3.635-8.785 5.667-14.013 5.667-5.23 0-10.253-2.032-14.015-5.667-3.759-3.633-5.961-8.585-6.141-13.811zM1205.221 227.479v-13.474c0.181-5.228 2.382-10.178 6.141-13.813 3.762-3.633 8.785-5.664 14.015-5.664 5.228 0 10.253 2.032 14.013 5.664 3.759 3.635 5.961 8.585 6.141 13.813v13.474c-0.181 5.225-2.382 10.178-6.141 13.811-3.759 3.635-8.785 5.664-14.013 5.664-5.23 0-10.253-2.029-14.015-5.664-3.759-3.633-5.961-8.585-6.141-13.811zM1205.221 321.571v-13.474c0.181-5.228 2.382-10.178 6.141-13.813 3.762-3.633 8.785-5.664 14.015-5.664 5.228 0 10.253 2.032 14.013 5.664 3.759 3.635 5.961 8.585 6.141 13.813v13.584c-0.181 5.225-2.382 10.178-6.141 13.813-3.759 3.633-8.785 5.664-14.013 5.664-5.23 0-10.253-2.032-14.015-5.664-3.759-3.635-5.961-8.585-6.141-13.813v-0.11zM550.4 781.473v-4.042c-31.814-4.883-60.828-20.987-81.804-45.4-20.973-24.413-32.52-55.525-32.555-87.709v-273.292c0.003-21.054 8.367-41.243 23.256-56.129 14.886-14.886 35.075-23.25 56.129-23.256h282.384c21.054 0.005 41.243 8.37 56.129 23.256 14.888 14.886 23.253 35.075 23.256 56.129v273.292c-0.005 32.073-11.45 63.091-32.278 87.48s-49.675 40.548-81.351 45.572l-0.787 0.112v4.042c-0.124 5.306-2.285 10.361-6.039 14.114s-8.809 5.917-14.115 6.041h-172.013c-5.306-0.124-10.361-2.287-14.115-6.041s-5.915-8.808-6.039-14.114l-0.057-0.056zM1204.884 415.66v-13.474c0.181-5.225 2.382-10.178 6.141-13.811 3.762-3.635 8.785-5.664 14.015-5.664 5.228 0 10.253 2.029 14.013 5.664 3.759 3.633 5.961 8.585 6.141 13.811v13.587c-0.181 5.225-2.382 10.178-6.141 13.811-3.759 3.635-8.785 5.667-14.013 5.667-5.23 0-10.253-2.032-14.015-5.667-3.759-3.633-5.961-8.585-6.141-13.811v-0.113zM1204.884 509.753v-13.361c0.181-5.228 2.382-10.178 6.141-13.813 3.762-3.633 8.785-5.664 14.015-5.664 5.228 0 10.253 2.032 14.013 5.664 3.759 3.635 5.961 8.585 6.141 13.813v13.361c-0.181 5.225-2.382 10.178-6.141 13.813-3.759 3.633-8.785 5.664-14.013 5.664-5.23 0-10.253-2.032-14.015-5.664-3.759-3.635-5.961-8.588-6.141-13.813zM1204.884 603.958v-13.474c0.181-5.228 2.382-10.181 6.141-13.813 3.762-3.633 8.785-5.664 14.015-5.664 5.228 0 10.253 2.032 14.013 5.664s5.961 8.585 6.141 13.811v13.474c-0.181 5.228-2.382 10.181-6.141 13.813s-8.785 5.664-14.013 5.664c-5.23 0-10.253-2.032-14.015-5.664-3.759-3.633-5.961-8.585-6.141-13.811zM1467.061 677.95v-67.255c0.181-5.228 2.382-10.178 6.141-13.813 3.759-3.633 8.785-5.664 14.013-5.664 5.23 0 10.253 2.032 14.015 5.664 3.759 3.635 5.961 8.585 6.141 13.813v67.255c-0.181 5.225-2.382 10.178-6.141 13.811-3.762 3.634-8.785 5.665-14.015 5.665-5.228 0-10.253-2.031-14.013-5.665s-5.961-8.586-6.141-13.811zM1204.884 698.048v-13.474c0.181-5.225 2.382-10.178 6.141-13.811 3.762-3.635 8.785-5.664 14.015-5.664 5.228 0 10.253 2.029 14.013 5.664 3.759 3.633 5.961 8.585 6.141 13.811v13.474c-0.181 5.226-2.382 10.178-6.141 13.812s-8.785 5.665-14.013 5.665c-5.23 0-10.253-2.031-14.015-5.665-3.759-3.634-5.961-8.586-6.141-13.812zM1467.061 824.477v-66.919c0.181-5.226 2.382-10.178 6.141-13.812s8.785-5.665 14.013-5.665c5.23 0 10.253 2.031 14.015 5.665 3.759 3.634 5.961 8.586 6.141 13.812v66.919c-0.181 5.226-2.382 10.178-6.141 13.812s-8.785 5.665-14.015 5.665c-5.228 0-10.253-2.031-14.013-5.665s-5.961-8.586-6.141-13.812zM1204.941 792.196v-13.474c0.181-5.226 2.382-10.178 6.141-13.812s8.785-5.665 14.013-5.665c5.23 0 10.253 2.031 14.015 5.665 3.759 3.634 5.961 8.586 6.141 13.812v13.586c-0.181 5.226-2.382 10.178-6.141 13.812-3.762 3.634-8.785 5.665-14.015 5.665-5.228 0-10.253-2.031-14.013-5.665s-5.961-8.586-6.141-13.812v-0.112zM1204.884 886.343v-13.474c0.181-5.226 2.382-10.178 6.141-13.812 3.762-3.634 8.785-5.665 14.015-5.665 5.228 0 10.253 2.031 14.013 5.665s5.961 8.586 6.141 13.812v13.586c-0.181 5.226-2.382 10.178-6.141 13.812s-8.785 5.665-14.013 5.665c-5.23 0-10.253-2.031-14.015-5.665-3.759-3.634-5.961-8.586-6.141-13.812v-0.112zM454.961 160.221l33.628 34.978h350.879l33.628-34.978h-418.134zM515.422 332.404c-10.337 0.035-20.243 4.155-27.551 11.466-7.311 7.308-11.434 17.214-11.466 27.554v124.968h360.424v-124.968c-0.032-10.34-4.155-20.246-11.466-27.554-7.308-7.311-17.214-11.434-27.554-11.466h-282.387zM686.147 409.037c-0.008-12.237 3.614-24.199 10.407-34.377 6.793-10.175 16.451-18.109 27.756-22.795 11.302-4.686 23.741-5.912 35.743-3.527 12 2.385 23.024 8.276 31.677 16.928 8.65 8.65 14.541 19.674 16.928 31.677 2.385 12 1.156 24.439-3.53 35.743-4.686 11.302-12.619 20.96-22.795 27.753-10.178 6.793-22.14 10.415-34.377 10.41-16.333-0.197-31.941-6.772-43.49-18.322s-18.125-27.158-18.319-43.49zM500.601 408.98v-0.113c-0.011-8.103 1.576-16.133 4.675-23.625 3.096-7.489 7.64-14.296 13.371-20.027s12.539-10.275 20.027-13.371c7.491-3.096 15.519-4.686 23.625-4.673h0.113c33.964 0.391 61.418 27.845 61.812 61.809 0.391 33.964 0 0.113 0 0.113 0.011 8.106-1.576 16.133-4.673 23.625-3.099 7.491-7.642 14.296-13.374 20.027s-12.539 10.278-20.027 13.374c-7.491 3.096-15.519 4.683-23.625 4.673h-0.113c-16.333-0.197-31.941-6.772-43.49-18.322s-18.125-27.158-18.322-43.49zM726.512 410.328c0.019 4.247 1.296 8.394 3.668 11.916 2.371 3.525 5.732 6.265 9.661 7.882 3.926 1.617 8.246 2.035 12.409 1.202s7.99-2.881 10.992-5.885c3.005-3.002 5.050-6.826 5.885-10.992 0.833-4.163 0.415-8.483-1.202-12.409s-4.36-7.289-7.882-9.661c-3.522-2.371-7.669-3.649-11.916-3.668h-0.337c-5.624 0.016-11.013 2.255-14.988 6.233-3.977 3.977-6.219 9.364-6.233 14.988v0.337l-0.057 0.057zM540.968 410.384c-0.008 4.274 1.253 8.453 3.622 12.010 2.371 3.557 5.742 6.333 9.69 7.971s8.294 2.070 12.487 1.237c4.19-0.83 8.044-2.889 11.065-5.91 3.023-3.023 5.080-6.874 5.912-11.067s0.402-8.537-1.237-12.485c-1.638-3.948-4.414-7.322-7.971-9.69-3.557-2.371-7.737-3.633-12.010-3.624h-0.337c-5.624 0.013-11.013 2.255-14.991 6.233-3.975 3.975-6.217 9.364-6.23 14.988v0.337zM476.349 536.757v108.239c0 12.283 2.42 24.444 7.119 35.791s11.59 21.659 20.275 30.344c8.685 8.685 18.995 15.575 30.343 20.275s23.512 7.119 35.794 7.119h173.25c51.647 0 93.529-41.881 93.529-93.529v-108.126l-360.311-0.113z" />
<glyph unicode="&#xe93f;" glyph-name="twitter-fill" horiz-adv-x="1229" d="M1210.522 809.622c-42.752-18.944-88.678-31.744-136.96-37.53 49.818 29.809 87.091 76.725 104.858 131.994-46.802-27.801-98.028-47.37-151.45-57.856-35.922 38.356-83.502 63.779-135.357 72.321-51.85 8.543-105.073-0.272-151.404-25.077-46.326-24.804-83.169-64.21-104.806-112.1-21.642-47.889-26.865-101.583-14.858-152.745-94.838 4.762-187.615 29.412-272.31 72.351s-159.416 103.206-219.312 176.891c-20.48-35.328-32.256-76.288-32.256-119.91-0.023-39.27 9.648-77.939 28.154-112.575s45.275-64.169 77.933-85.979c-37.874 1.205-74.912 11.439-108.032 29.85v-3.072c-0.004-55.078 19.048-108.461 53.923-151.092 34.875-42.629 83.425-71.88 137.412-82.79-35.134-9.508-71.97-10.906-107.725-4.096 15.232-47.391 44.902-88.832 84.857-118.523s88.195-46.147 137.965-47.058c-84.488-66.324-188.831-102.303-296.243-102.144-19.027-0.005-38.038 1.106-56.934 3.328 109.029-70.103 235.947-107.305 365.568-107.162 438.783 0 678.655 363.418 678.655 678.606 0 10.24-0.256 20.582-0.717 30.822 46.659 33.742 86.932 75.526 118.938 123.392l0.102 0.154z" />
<glyph unicode="&#xe940;" glyph-name="update" horiz-adv-x="1058" d="M113.119 463.708c0-235.51 170.753-395.974 362.55-429.165 5.219-0.905 10.206-2.826 14.681-5.659 4.475-2.83 8.346-6.516 11.397-10.844 3.048-4.332 5.216-9.216 6.376-14.384 1.161-5.164 1.294-10.51 0.389-15.725-0.905-5.219-2.826-10.206-5.659-14.681s-6.516-8.346-10.844-11.397c-4.332-3.048-9.216-5.216-14.384-6.376-5.164-1.164-10.51-1.294-15.729-0.389-225.219 38.994-429.396 228.857-429.396 508.621 0 118.917 54.081 212.378 117.214 283.403 45.261 50.909 97.021 92.301 138.645 123.945h-126.576c-10.26 0-20.099 4.076-27.354 11.331s-11.33 17.094-11.33 27.354c0 10.259 4.076 20.099 11.33 27.354s17.094 11.33 27.354 11.33h232.105c10.26 0 20.101-4.076 27.354-11.33 7.257-7.255 11.332-17.094 11.332-27.354v-232.107c0-10.259-4.076-20.099-11.332-27.354-7.253-7.255-17.094-11.331-27.354-11.331-10.257 0-20.098 4.076-27.351 11.331-7.257 7.255-11.332 17.094-11.332 27.354v142.823l-0.079-0.155c-44.253-33.269-98.257-74.042-145.065-126.73-55.319-62.205-96.943-137.407-96.943-229.785v-0.079zM972.53 432.299c0 233.034-167.117 392.491-356.437 428.080-5.277 0.895-10.322 2.832-14.841 5.699s-8.424 6.603-11.486 10.994c-3.058 4.391-5.216 9.347-6.339 14.58-1.126 5.233-1.195 10.637-0.208 15.897s3.011 10.272 5.953 14.742c2.942 4.47 6.748 8.309 11.192 11.293 4.441 2.984 9.434 5.053 14.684 6.087 5.253 1.034 10.656 1.012 15.899-0.065 222.358-41.779 422.202-230.559 422.202-507.306 0-118.917-54.081-212.303-117.214-283.402-45.261-50.91-97.021-92.303-138.646-123.945h126.577c10.26 0 20.101-4.079 27.354-11.332s11.329-17.094 11.329-27.354c0-10.26-4.076-20.098-11.329-27.354-7.253-7.253-17.094-11.329-27.354-11.329h-232.107c-10.26 0-20.098 4.076-27.354 11.329-7.253 7.257-11.329 17.094-11.329 27.354v232.107c0 10.26 4.076 20.101 11.329 27.354 7.257 7.253 17.094 11.332 27.354 11.332s20.101-4.079 27.354-11.332c7.253-7.253 11.329-17.094 11.329-27.354v-142.746h0.157c44.175 33.423 98.256 74.121 144.988 126.887 55.32 62.126 96.942 137.329 96.942 229.786z" />
<glyph unicode="&#xe941;" glyph-name="video-call" horiz-adv-x="1843" d="M602.585 944.25c-425.354 0-602.585-57.635-602.585-104.141v-782.013c0-45.441 177.231-106.338 602.585-106.338 425.357 0 602.581 57.636 602.581 104.141v782.013c0 45.442-177.224 106.338-602.581 106.338zM1798.892 942.052c-11.919-0.475-23.45-4.336-33.249-11.13l-460.8-296.827c-17.725-13.327-28.785-35.303-28.785-57.635v-256.914c0-22.33 11.059-44.236 28.785-57.635l460.8-296.898c12.483-9.428 73.165-38.988 73.165 57.636v850.708c0 55.792-19.21 69.545-39.916 68.695z" />
<glyph unicode="&#xe942;" glyph-name="yes" horiz-adv-x="1117" d="M915.063 877.148l124.744-87.505-540.86-780.101h-124.741l-301.615 422.632 124.741 116.364 239.244-223.418 478.487 552.029z" />
<glyph unicode="&#xe943;" glyph-name="youtube-fill" horiz-adv-x="1365" d="M1336.895 760.486c-7.731 27.578-22.79 52.546-43.577 72.249-21.373 20.309-47.57 34.837-76.117 42.212-106.837 28.16-534.869 28.16-534.869 28.16-178.44 2.030-356.838-6.899-534.185-26.738-28.547-7.92-54.695-22.771-76.117-43.236-21.049-20.252-36.295-45.227-44.26-72.59-19.132-103.068-28.428-207.721-27.762-312.548-0.683-104.734 8.59-209.352 27.762-312.549 7.794-27.25 22.983-52.11 44.089-72.192s47.388-34.588 76.288-42.268c108.26-28.103 534.185-28.103 534.185-28.103 178.671-2.031 357.296 6.895 534.869 26.738 28.547 7.378 54.744 21.902 76.117 42.212 21.049 20.082 36.011 45.056 43.52 72.249 19.632 103.031 29.178 207.724 28.501 312.606 1.479 105.324-8.055 210.514-28.444 313.856v-0.057zM546.255 253.207v389.519l356.123-194.788-356.123-194.732z" />
<glyph unicode="&#xe944;" glyph-name="plus1" d="M1024 576h-384v384h-256v-384h-384v-256h384v-384h256v384h384z" />
</font>
</defs>
</svg>
